<?xml version="1.0" encoding="UTF-8" standalone="no"?>
<svg
   version="1.1"
   viewBox="0 0 1112.8 1077.8"
   id="svg1198"
   sodipodi:docname="ercas-hero.svg"
   width="1112.8"
   height="1077.8"
   inkscape:version="1.2.2 (b0a84865, 2022-12-01)"
   xmlns:inkscape="http://www.inkscape.org/namespaces/inkscape"
   xmlns:sodipodi="http://sodipodi.sourceforge.net/DTD/sodipodi-0.dtd"
   xmlns="http://www.w3.org/2000/svg"
   xmlns:svg="http://www.w3.org/2000/svg">
  <defs
     id="defs1202" />
  <sodipodi:namedview
     id="namedview1200"
     pagecolor="#ffffff"
     bordercolor="#000000"
     borderopacity="0.25"
     inkscape:showpageshadow="2"
     inkscape:pageopacity="0"
     inkscape:pagecheckerboard="0"
     inkscape:deskcolor="#d1d1d1"
     showgrid="false"
     inkscape:zoom="0.69885815"
     inkscape:cx="98.017029"
     inkscape:cy="298.3438"
     inkscape:window-width="2560"
     inkscape:window-height="1387"
     inkscape:window-x="0"
     inkscape:window-y="25"
     inkscape:window-maximized="0"
     inkscape:current-layer="svg1198" />
  <path
     fill="#2270ba"
     d="m 227.80137,93.88002 q -2.7,0.59 -5.14,-0.16 l -0.19,-76.980001 a 2.73,2.73 0 0 1 2.71,-2.74 h 0.13 a 2.7,2.7 0 0 1 2.71,2.71 z"
     id="path758" />
  <path
     fill="#e8291f"
     d="m 222.66137,93.72002 q 2.44,0.75 5.14,0.16 6.71,1 13.33,1.84 5.36,0.68 13.69,5.51 a 11.61,10.49 51.8 0 0 1.44,0.72 q 5.93,2.44 10.32,4.83 2.24,1.23 3.53,3.34 a 1.39,1.35 1.6 0 0 0.46,0.47 l 6.62,4.22 a 2.66,2.9 73.5 0 0 0.51,0.25 q 6.36,2.31 11.23,5.69 a 1.78,1.84 62.4 0 0 1.05,0.31 l 2.33,-0.04 a 2.11,2.18 59.1 0 1 1.03,0.24 q 0.97,0.49 10.68,4.98 7.18,3.31 9.98,6.02 c 6.22,5.98 7.05,15.28 6.43,23.73 q -2.77,-3.82 -5.8,-7.17 -0.08,-0.08 -2.51,-3.15 -1.4,-1.76 -3.17,-2.71 -1.06,-3.51 -5.38,-5.95 -5.07,-2.86 -8.69,-4.51 a 3.84,4.03 58.4 0 0 -1.61,-0.34 q -3.22,-0.01 -7.32,-1.98 a 3.19,3.42 79.9 0 1 -0.68,-0.44 c -4.22,-3.51 -9.82,-5.51 -16.18,-8.42 q -0.45,-0.2 -0.9,-1.32 c -0.59,-1.44 -1.9,-2.66 -3.05,-3.31 q -6.8,-3.81 -15.77,-7.27 l -5.64,0.23 a 0.74,0.72 10.2 0 0 -0.64,0.43 l -1.02,2.33 a 0.68,0.68 0 0 1 -0.96,0.32 q -0.67,-0.38 -1.01,-1.54 0.03,-0.68 -0.21,-1.15 -0.23,-0.44 -0.93,-0.62 -4.78,-1.21 -13.6,-3.23 -5.3,-1.22 -8.33,-0.88 c -6.45,0.71 -10.68,3.3 -16.63,7.43 q -4.65,3.22 -6.27,3.3 c -12.18,0.58 -23.69,5.41 -33.42,12.52 -1.59,1.16 -1.73,3.1 -3.5,4.26 q -4.39,2.87 -9.3,2.59 l -1.86,-12.25 5.01,-0.89 a 2.66,2.63 17.7 0 0 1.41,-0.72 c 0.76,-0.75 1.51,-1.92 2.19,-2.61 q 4.12,-4.18 11.23,-7.45 9.06,-4.16 18.66,-6.66 c 2.84,-0.74 6.22,-0.8 8.23,-1.16 a 2.61,2.56 20.8 0 0 1.1,-0.48 c 6.94,-5.16 14.31,-9.55 21.48,-9.44 q 3.63,0.06 7.3,-0.03 z"
     id="path760" />
  <path
     fill="#e25e1d"
     d="m 249.37137,109.42002 -0.09,4.59 -3.13,6.07 a 1.11,1.1 33.5 0 1 -1.69,0.34 q -3.05,-2.52 -4.63,-5.91 l 0.27,-3.32 q 0.34,1.16 1.01,1.54 a 0.68,0.68 0 0 0 0.96,-0.32 l 1.02,-2.33 a 0.74,0.72 10.2 0 1 0.64,-0.43 z"
     id="path762" />
  <path
     fill="#d6d90e"
     d="m 249.28137,114.01002 -0.51,97.76 q 0.13,1.28 -0.19,2.23 a 0.49,0.5 20.4 0 1 -0.65,0.3 q -3.71,-1.38 -7.78,-1.28 l -0.32,-98.51 q 1.58,3.39 4.63,5.91 a 1.11,1.1 33.5 0 0 1.69,-0.34 z"
     id="path764" />
  <path
     fill="#e25e1d"
     d="m 146.05137,123.16002 1.86,12.25 c -7.98,2.21 -7.2,13.65 -7.21,19.9 l -12.77,-0.32 q 0.36,-8.09 1.08,-11.62 2.94,-14.6 17.04,-20.21 z"
     id="path766" />
  <path
     fill="#2270ba"
     d="m 274.06137,177.06002 -4.93,-2.16 a 0.76,0.76 0 0 1 -0.45,-0.7 v -32.54 a 0.76,0.76 0 0 1 1.07,-0.69 l 4.93,2.16 a 0.76,0.76 0 0 1 0.45,0.7 v 32.54 a 0.76,0.76 0 0 1 -1.07,0.69 z"
     id="path768" />
  <path
     fill="#2270ba"
     d="m 164.79137,151.41002 17.54,-7.97 a 0.81,0.81 0 0 1 1.15,0.74 v 29.85 a 0.81,0.81 0 0 1 -0.47,0.74 l -17.54,7.97 a 0.81,0.81 0 0 1 -1.15,-0.74 v -29.85 a 0.81,0.81 0 0 1 0.47,-0.74 z"
     id="path770" />
  <path
     fill="#32578e"
     d="m 320.43137,155.99002 -0.23,61.95 -11.47,1.01 0.22,-75.99 q 1.77,0.95 3.17,2.71 2.43,3.07 2.51,3.15 3.03,3.35 5.8,7.17 z"
     id="path772" />
  <path
     fill="#2270ba"
     d="m 290.38137,183.76002 -5.37,-2.35 a 0.68,0.68 0 0 1 -0.41,-0.62 v -31.67 a 0.68,0.68 0 0 1 0.95,-0.62 l 5.37,2.35 a 0.68,0.68 0 0 1 0.41,0.62 v 31.67 a 0.68,0.68 0 0 1 -0.95,0.62 z"
     id="path774" />
  <path
     fill="#e8291f"
     d="m 140.70137,155.31002 -0.71,94.37 -12.91,0.26 0.85,-94.95 z"
     id="path776" />
  <path
     fill="#2270ba"
     d="m 857.96137,220.55002 q 2.83,5.41 3.08,10.68 l -8.93,-3.34 a 0.42,0.42 0 0 0 -0.57,0.39 v 168.64 a 0.73,0.73 0 0 1 -0.88,0.71 l -5.11,-1.08 a 1.63,1.63 0 0 1 -1.3,-1.6 v -166.87 a 0.88,0.84 24.6 0 0 -0.23,-0.58 q -0.55,-0.6 -1.62,-0.63 0.72,-0.11 -0.48,-0.87 -7.27,-4.64 -15.42,-8.24 a 0.48,0.48 0 0 1 0.01,-0.88 q 0.5,-0.21 0.49,-1.19 1.66,0.09 2.58,-0.42 a 0.87,0.88 75.6 0 0 0.46,-0.77 v -56.79 a 2.06,2.06 0 0 1 2.2,-2.06 l 0.53,0.03 a 2.51,2.52 1.8 0 1 2.35,2.51 v 56.67 a 0.65,0.66 0 0 0 0.65,0.66 q 5.02,-0.01 10.2,1.44 6.23,1.75 11.99,3.59 z"
     id="path778" />
  <path
     fill="#2270ba"
     d="m 274.15137,233.49002 -5.3,-2.33 a 0.57,0.57 0 0 1 -0.34,-0.52 v -32.7 a 0.57,0.57 0 0 1 0.8,-0.52 l 5.3,2.33 a 0.57,0.57 0 0 1 0.34,0.52 v 32.7 a 0.57,0.57 0 0 1 -0.8,0.52 z"
     id="path780" />
  <path
     fill="#2270ba"
     d="m 164.21137,205.91002 18.32,-7.75 a 0.41,0.41 0 0 1 0.57,0.38 v 30.71 a 0.41,0.41 0 0 1 -0.25,0.38 l -18.32,7.75 a 0.41,0.41 0 0 1 -0.57,-0.38 v -30.71 a 0.41,0.41 0 0 1 0.25,-0.38 z"
     id="path782" />
  <path
     fill="#2270ba"
     d="m 290.33137,238.70002 -5.52,-1.86 a 0.49,0.49 0 0 1 -0.33,-0.46 v -32.27 a 0.49,0.49 0 0 1 0.65,-0.46 l 5.52,1.87 a 0.49,0.49 0 0 1 0.33,0.46 v 32.26 a 0.49,0.49 0 0 1 -0.65,0.46 z"
     id="path784" />
  <path
     fill="#e25e1d"
     d="m 248.77137,211.77002 -0.36,40.7 -8.21,-5.5 -0.05,-33.95 q 4.07,-0.1 7.78,1.28 a 0.49,0.5 20.4 0 0 0.65,-0.3 q 0.32,-0.95 0.19,-2.23 z"
     id="path786" />
  <path
     fill="#e8291f"
     d="m 827.00137,215.69002 q 0.01,0.98 -0.49,1.19 a 0.48,0.48 0 0 0 -0.01,0.88 q 8.15,3.6 15.42,8.24 1.2,0.76 0.48,0.87 -4.17,-1.08 -8.33,-2.17 -4.19,-1.1 -6.33,-0.88 c -4.31,0.45 -6.54,1.42 -10.24,4.53 q -2.62,2.2 -6.76,2.34 a 4.54,4.41 31 0 0 -1.71,0.4 l -4.03,1.88 a 1.9,1.89 33 0 1 -0.91,0.19 q -5.83,-0.13 -11.22,2.95 c 1.79,-4.65 3.25,-7.79 -0.87,-11.5 6.47,-2.68 10.76,-2.59 16.89,-2.57 a 1.68,1.62 27.5 0 0 0.91,-0.27 q 1.37,-0.92 5.13,-3.19 6.18,-3.74 12.07,-2.89 z"
     id="path788" />
  <path
     fill="#2270ba"
     d="m 320.20137,217.94002 0.08,34.73 a 1.25,1.26 8.9 0 0 0.87,1.2 q 19.2,6.2 28.48,9.59 4.31,1.57 8.89,4.88 c 8.76,6.33 11.51,17.38 11.07,27.68 q -0.74,-0.28 -1.25,0.07 -3.44,-7.71 -9.31,-13.28 -0.44,-0.42 -1.93,-0.13 -3.98,-6.27 -10.97,-8.9 -19.58,-7.34 -37.66,-12.19 a 0.43,0.42 8.7 0 1 -0.32,-0.42 l 0.58,-42.22 z"
     id="path790" />
  <path
     fill="#833c43"
     d="m 863.36137,222.30002 -0.89,0.17 a 1.39,1.39 0 0 0 -1.05,1.81 q 1.45,4.31 0.94,8.01 -0.96,-0.45 -1.32,-1.06 -0.25,-5.27 -3.08,-10.68 z"
     id="path792" />
  <path
     fill="#e8291f"
     d="m 889.76137,340.27002 -11.22,-0.25 q 0.09,-47.89 0.14,-95.79 c 0.01,-3.86 -1.35,-6.88 -5.26,-8.52 q -4.66,-1.96 -9.17,-2.38 -0.5,-0.04 -1.04,-0.36 -0.54,-0.33 -0.85,-0.68 0.51,-3.7 -0.94,-8.01 a 1.39,1.39 0 0 1 1.05,-1.81 l 0.89,-0.17 q 6.18,2.09 12.41,4.26 c 11.87,4.14 13.7,15.11 13.69,26.17 q -0.04,43.77 0.3,87.54 z"
     id="path794" />
  <path
     fill="#e25e1d"
     d="m 792.00137,224.61002 c 4.12,3.71 2.66,6.85 0.87,11.5 q -2.12,1.48 -3.18,3.76 -0.79,1.68 -0.8,4.87 -0.02,4.36 0.11,8.64 c -3.91,0.33 -7.6,1.09 -11.46,-0.13 -0.05,-12.33 1.49,-23.71 14.46,-28.64 z"
     id="path796" />
  <path
     fill="#2270ba"
     d="m 817.53137,272.03002 -4.84,1.89 a 0.81,0.81 0 0 1 -1.1,-0.76 v -25.9 a 0.81,0.81 0 0 1 0.51,-0.75 l 4.84,-1.9 a 0.81,0.81 0 0 1 1.11,0.76 v 25.91 a 0.81,0.81 0 0 1 -0.52,0.75 z"
     id="path798" />
  <path
     fill="#e8291f"
     d="m 248.41137,252.47002 -0.12,36.68 q -3.69,3.16 -8.12,0.83 l 0.03,-43.01 z"
     id="path800" />
  <path
     fill="#833c43"
     d="m 139.99137,249.68002 -0.12,2.91 q -5.74,4.33 -12.74,-0.18 l -0.05,-2.47 z"
     id="path802" />
  <path
     fill="#6e9c77"
     d="m 220.06137,250.43002 q -0.06,0.93 0.37,1.22 a 1.26,1.33 49.7 0 1 -0.24,2.21 q -3.63,1.82 -7.24,3.39 -1.26,0.55 -1.94,1.27 -1.04,1.11 -0.29,2.07 -0.73,0.14 -0.75,1.64 -0.23,16.68 -0.21,33.39 -4.46,-0.72 -8.54,0.67 l -0.05,-33.66 0.2,-4.99 a 1.54,1.55 64.8 0 1 0.32,-0.88 l 3.86,-5.01 q 4.09,-1.26 8.82,-1.75 2.92,-0.31 5.69,0.43 z"
     id="path804" />
  <path
     fill="#c32a28"
     d="m 220.06137,250.43002 13.34,3.2 a 0.48,0.48 0 0 1 0.37,0.5 l -0.68,10.41 a 0.36,0.36 0 0 1 -0.45,0.32 q -5.53,-1.54 -14.27,-3.62 -3.61,-0.86 -7.65,-0.65 -0.75,-0.96 0.29,-2.07 0.68,-0.72 1.94,-1.27 3.61,-1.57 7.24,-3.39 a 1.26,1.33 49.7 0 0 0.24,-2.21 q -0.43,-0.29 -0.37,-1.22 z"
     id="path806" />
  <path
     fill="#2270ba"
     d="m 205.55137,251.75002 -3.86,5.01 a 1.54,1.55 64.8 0 0 -0.32,0.88 l -0.2,4.99 -11.23,1.78 a 6.65,6.79 28.5 0 0 -1.88,0.58 l -10.35,4.93 a 10.13,10.43 26.5 0 1 -2.05,0.72 c -1.51,0.36 -2.91,0.24 -5.06,0.93 q -15.32,4.91 -30.63,11.66 c -8.69,3.83 -17.23,6.58 -25.19,11.36 q -9.77,5.86 -10.39,16.69 l -5.089996,2.9 a 1.46,1.68 9.9 0 0 -0.33,0.27 q -2.91,3.12 -6.56,5.64 -0.28,-6.69 0.09,-10.39 1.96,-19.48 19.909996,-27.72 13.9,-6.38 18.81,-8.16 3.17,-1.14 23.66,-7.83 5.76,-1.88 9.57,-2.13 a 3.19,3.16 32 0 0 1.02,-0.23 l 29.45,-11.5 a 1.33,1.24 31 0 1 0.42,-0.09 z"
     id="path808" />
  <path
     fill="#e8291f"
     d="m 789.00137,253.38002 -0.07,28.07 -11.42,0.58 0.03,-28.78 c 3.86,1.22 7.55,0.46 11.46,0.13 z"
     id="path810" />
  <path
     fill="#32578e"
     d="m 139.87137,252.59002 -0.06,9.16 a 0.65,0.65 0 0 1 -0.42,0.61 l -11.51,4.5 a 0.56,0.56 0 0 1 -0.76,-0.52 l 0.01,-13.93 q 7,4.51 12.74,0.18 z"
     id="path812" />
  <path
     fill="#32578e"
     d="m 267.42137,260.28002 0.26,10.83 -11.29,-3.43 a 0.27,0.27 0 0 1 -0.19,-0.26 v -10.03 a 0.21,0.22 8.7 0 1 0.28,-0.21 z"
     id="path814" />
  <path
     fill="#833c43"
     d="m 282.65137,265.59002 -0.31,9.91 -14.66,-4.39 -0.26,-10.83 z"
     id="path816" />
  <path
     fill="#c32a28"
     d="m 301.84137,272.01002 -1.8,9.33 -17.7,-5.84 0.31,-9.91 z"
     id="path818" />
  <path
     fill="#e8291f"
     d="m 358.53137,291.37002 q 1.38,3.5 1.54,8.35 0.01,0.52 -0.19,0.81 -0.29,0.41 -0.71,0.44 l -59.13,-19.63 1.8,-9.33 z"
     id="path820" />
  <path
     fill="#c32a28"
     d="m 228.20137,312.99002 -5.82,-1.97 a 0.36,0.36 0 0 1 -0.24,-0.34 v -37.41 a 0.36,0.36 0 0 1 0.48,-0.34 l 5.82,1.97 a 0.36,0.36 0 0 1 0.24,0.34 v 37.41 a 0.36,0.36 0 0 1 -0.48,0.34 z"
     id="path822" />
  <path
     fill="#2270ba"
     d="m 170.66137,310.24002 a 0.6,0.6 0 0 0 -0.82,-0.55 l -8.38,3.28 a 1.65,1.65 0 0 0 -1.05,1.43 l -0.66,10.07 a 1.1,1.12 80.9 0 1 -0.71,0.97 l -4.86,1.9 a 0.49,0.5 79.5 0 1 -0.68,-0.46 l 0.31,-32.2 a 3.73,3.79 58.9 0 1 0.44,-1.72 q 1.3,-2.41 3.87,-3.76 9.08,-4.75 12.92,-6.05 7.32,-2.47 12.5,-4.29 0.97,-0.34 3.1,0.98 a 0.95,0.97 15.9 0 1 0.44,0.81 v 7.37 a 0.84,0.84 0 0 1 -0.53,0.78 l -7.93,3.1 a 5.11,5.09 4.3 0 0 -2.54,2.18 l -1.83,3.17 a 0.81,0.8 4.2 0 0 1,1.15 l 10.38,-4.05 a 1.1,1.1 0 0 1 1.5,1.1 l -0.44,6.68 a 1.6,1.6 0 0 1 -1.01,1.38 l -10.99,4.3 a 1.17,1.17 0 0 0 -0.75,1.03 l -0.68,10.24 a 1.16,1.16 0 0 1 -0.76,1.01 l -0.28,0.1 a 1.1,1.1 0 0 1 -1.44,-1.03 z"
     id="path824" />
  <path
     fill="#2270ba"
     d="m 287.55137,324.48002 a 0.59,0.58 9.9 0 1 -0.77,0.54 l -4.21,-1.42 a 0.9,0.91 11 0 1 -0.61,-0.91 l 0.72,-10.88 a 0.29,0.31 10.1 0 0 -0.2,-0.3 l -7.38,-2.5 a 0.35,0.34 12.6 0 0 -0.45,0.28 l -1.19,9.33 a 0.87,0.87 0 0 1 -1.59,0.36 q -0.43,-0.65 -0.31,-2 c 0.22,-2.59 -0.02,-5.43 0.25,-8.7 a 0.38,0.37 12.9 0 0 -0.25,-0.39 l -7.99,-2.7 a 0.18,0.18 0 0 0 -0.24,0.17 q -0.1,6.06 -1.42,10.75 a 1.37,1.43 14.9 0 1 -1.66,1.01 c -1.5,-0.37 -1.8,-1.29 -1.71,-2.81 q 0.95,-14.85 0.64,-31.96 a 1.63,1.64 78.4 0 1 1.04,-1.56 c 2.14,-0.86 4.47,-1.2 7.19,-0.36 q 12.39,3.82 17.68,6.54 2.01,1.03 2.93,3.77 a 1.58,1.52 36.8 0 1 0.08,0.49 z m -23.96,-28.73 a 0.72,0.72 0 0 0 0.48,0.73 l 6.86,2.31 a 0.72,0.72 0 0 0 0.95,-0.63 l 0.32,-4.85 a 0.72,0.72 0 0 0 -0.48,-0.73 l -6.86,-2.32 a 0.72,0.72 0 0 0 -0.95,0.63 z m 11.59,3.22 a 0.49,0.49 0 0 0 0.29,0.45 l 5.85,2.56 a 0.49,0.49 0 0 0 0.69,-0.45 v -4.81 a 0.49,0.49 0 0 0 -0.29,-0.45 l -5.85,-2.57 a 0.49,0.49 0 0 0 -0.69,0.45 z"
     id="path826" />
  <path
     fill="#e25e1d"
     d="m 788.93137,281.45002 -0.08,24.57 -11.37,1.5 0.03,-25.49 z"
     id="path828" />
  <path
     fill="#2270ba"
     d="m 812.37137,284.18002 4.75,-1.86 a 1.06,1.06 0 0 1 1.45,0.98 v 27.17 a 1.06,1.06 0 0 1 -0.65,0.97 l -4.75,2.01 a 1.06,1.06 0 0 1 -1.47,-0.98 v -27.31 a 1.06,1.06 0 0 1 0.67,-0.98 z"
     id="path830" />
  <path
     fill="#d6d90e"
     d="m 368.34137,296.09002 q 1.74,3.22 0.88,7.33 a 0.53,0.54 3.6 0 1 -0.48,0.43 q -0.56,0.05 -0.76,0.56 -1.47,3.77 -2.49,5.56 a 1.39,1.38 31.8 0 1 -1.99,0.46 q -0.68,-0.45 -1.58,-1.76 -1.18,-1.73 -2.27,-6.97 l -0.48,-0.73 q 0.42,-0.03 0.71,-0.44 0.2,-0.29 0.19,-0.81 -0.16,-4.85 -1.54,-8.35 0.94,-4.16 -1.43,-8.69 1.49,-0.29 1.93,0.13 5.87,5.57 9.31,13.28 z"
     id="path832" />
  <path
     fill="#c32a28"
     d="m 248.29137,289.15002 -0.18,20.18 q 0.16,6.27 -7.94,7.45 v -26.8 q 4.43,2.33 8.12,-0.83 z"
     id="path834" />
  <path
     fill="#2270ba"
     d="m 306.94137,322.27002 -0.32,-2.7 a 1.94,1.94 0 0 0 -1.3,-1.6 l -6.85,-2.32 a 0.7,0.7 0 0 0 -0.92,0.62 l -0.52,7.88 a 2.85,2.84 67.4 0 1 -0.7,1.7 l -0.92,1.07 a 0.78,0.78 0 0 1 -1.37,-0.52 l 0.51,-33.34 a 1.13,1.13 0 0 1 0.46,-0.91 q 2.51,-1.89 5.44,-1.05 6.8,1.96 14.14,4.42 2.97,0.99 5.88,3.02 a 3.01,3 17.6 0 1 1.28,2.46 v 33.38 a 1.11,1.1 11.8 0 1 -1.55,1.01 l -5.45,-2.39 a 1.17,1.17 0 0 1 -0.53,-1.68 q 2.41,-3.97 1.8,-9.54 a 0.85,0.87 4.9 0 0 -0.61,-0.74 l -5.45,-1.63 a 1.12,1.12 0 0 0 -1.15,0.33 q -0.47,0.53 -0.76,2.54 a 0.56,0.56 0 0 1 -1.11,-0.01 z m -0.81,-18.54 a 0.62,0.62 0 0 0 -0.37,-0.57 l -6.76,-2.97 a 0.62,0.62 0 0 0 -0.87,0.57 v 5.27 a 0.62,0.62 0 0 0 0.42,0.59 l 6.76,2.28 a 0.62,0.62 0 0 0 0.82,-0.58 z m 9.11,8.06 q 0.01,-0.01 0.03,-0.02 a 0.02,0.1 45.3 0 0 0.04,-0.07 l 0.02,-5 a 0.78,0.8 9.2 0 0 -0.53,-0.75 q -2.68,-0.92 -4.41,-1.29 c -0.13,-0.03 -0.19,0 -0.31,0.09 -0.12,0.09 -0.17,0.14 -0.18,0.27 q -0.17,1.76 -0.1,4.59 a 0.8,0.78 8.3 0 0 0.56,0.73 l 4.77,1.49 a 0.02,0.1 62.2 0 0 0.08,-0.02 q 0.02,-0.01 0.03,-0.02 z"
     id="path838" />
  <path
     fill="#d6d90e"
     d="m 209.76137,295.62002 -0.33,68.5 a 0.34,0.34 0 0 1 -0.34,0.34 h -6.13 a 0.33,0.32 0 0 1 -0.33,-0.32 q -0.04,-3.18 -0.67,-8.04 -0.41,-3.21 -0.5,-8.23 -0.46,-25.81 -0.24,-51.58 4.08,-1.39 8.54,-0.67 z"
     id="path842" />
  <path
     fill="#2270ba"
     d="m 141.20137,310.93002 a 0.39,0.39 0 0 0 0.47,0.61 q 1.55,-0.96 2.5,-0.96 a 0.91,0.91 0 0 1 0.91,0.91 v 6.93 a 0.98,0.97 77.8 0 1 -0.57,0.89 l -9.85,4.47 a 2.09,2.09 0 0 0 -1.22,1.77 l -0.59,8.99 a 2.46,2.43 80 0 1 -1.43,2.07 l -0.6,0.28 a 1.25,1.25 0 0 1 -1.77,-1.22 l 0.59,-8.95 a 0.89,0.9 79.8 0 0 -1.26,-0.87 l -6.73,3.07 a 1.81,1.79 80 0 0 -1.06,1.53 l -0.62,9.4 a 1.98,1.97 79.6 0 1 -1.14,1.66 l -4.2,1.9 a 0.72,0.72 0 0 1 -1.02,-0.7 q 0.36,-6.04 0.01,-12.99 c -0.34,-6.7 0.54,-12.28 0.45,-19.02 a 1.96,1.96 0 0 1 0.23,-0.96 c 2.2,-4.21 8.59,-7.47 12.88,-9.19 q 4.58,-1.83 11.22,-4.85 2.06,-0.94 6.4,0.01 a 0.78,0.78 0 0 1 0.62,0.7 c 0.2,2.5 0.5,9.19 -1.35,11.78 q -0.02,0.02 -0.03,0.03 z"
     id="path844" />
  <path
     fill="#6e9c77"
     d="m 369.59137,296.02002 -0.17,63.5 -0.19,11.27 a 1.14,1.14 0 0 1 -1.7,0.97 q -4.36,-2.41 -8.27,-6.59 l 0.39,-63.47 q 1.09,5.24 2.27,6.97 0.9,1.31 1.58,1.76 a 1.39,1.38 31.8 0 0 1.99,-0.46 q 1.02,-1.79 2.49,-5.56 0.2,-0.51 0.76,-0.56 a 0.53,0.54 3.6 0 0 0.48,-0.43 q 0.86,-4.11 -0.88,-7.33 0.51,-0.35 1.25,-0.07 z"
     id="path846" />
  <path
     fill="#2270ba"
     d="m 339.59137,335.41002 a 0.51,0.51 0 0 1 -1.01,-0.03 l -0.68,-5.6 a 1.99,1.99 0 0 0 -1.34,-1.65 l -5.12,-1.74 a 0.77,0.77 0 0 0 -1.01,0.68 l -0.51,7.73 a 1.99,1.99 0 0 1 -0.99,1.59 l -0.48,0.28 a 0.85,0.85 0 0 1 -1.2,-0.79 l 0.44,-31.88 a 1.85,1.85 0 0 1 1.77,-1.83 l 4.69,-0.21 a 1.21,1.08 48.3 0 1 0.26,0.03 q 7.62,2.09 13.34,4.63 c 4.25,1.88 3.87,4.6 3.88,9.36 q 0,5.86 -0.08,8.52 c -0.19,6.19 0.27,12.6 0.22,18.83 a 1.17,1.18 9.5 0 1 -1.55,1.11 l -2.73,-0.92 a 1.62,1.62 0 0 1 -1.1,-1.64 l 0.62,-9.42 a 1.18,1.19 11 0 0 -0.8,-1.19 l -4.66,-1.57 a 0.79,0.8 14.3 0 0 -1.04,0.62 z m -2.11,-17.05 v -3.69 a 1.75,1.75 0 0 0 -1.51,-1.73 q -2.08,-0.27 -4.67,-1.83 a 0.42,0.42 0 0 0 -0.63,0.36 v 4.32 a 1.28,1.27 12.2 0 0 0.75,1.16 l 4.93,2.16 a 0.81,0.81 0 0 0 1.13,-0.75 z m 3.55,-3.4 c -0.03,0.02 -0.16,0.14 -0.16,0.21 q -0.08,3.54 0.14,4.74 a 1.01,0.99 7.5 0 0 0.58,0.74 q 2.65,1.13 4.57,1.77 0.29,0.09 0.55,-0.11 0.26,-0.2 0.24,-0.5 -0.13,-2.02 -0.56,-4.87 a 0.99,1.01 7.1 0 0 -0.56,-0.75 q -1.11,-0.51 -4.56,-1.33 c -0.06,-0.02 -0.22,0.08 -0.24,0.1 z"
     id="path850" />
  <path
     fill="#e8291f"
     d="m 777.76137,398.82002 q 2.04,5.53 -0.64,9.86 c -5.42,-1.67 -12.14,-2.63 -16.2,-3.48 -4.55,-0.95 -9.37,-1.83 -13.69,-3.11 q -9.51,-2.81 -18.52,-4.45 c -7.59,-1.38 -13.1,-3.5 -20.14,-4.83 q -10.99,-2.07 -12.9,-2.64 -6.91,-2.06 -13.09,-3.22 c -8.75,-1.66 -16,-3.92 -24.1,-5.55 q -15.4,-3.09 -20.97,-4.6 -6.14,-1.66 -16.24,-4.01 -17.27,-4.02 -34.39,-7.85 -6.98,-1.56 -9.39,-2.27 c -4.12,-1.22 -8.03,-1.78 -12.57,-2.87 q -4.75,-1.14 -34.43,-8.14 -30.59,-7.21 -61.11,-14.05 -38.61,-8.65 -41.63,-9.57 -1.63,-0.5 -8.84,-1.89 c -4.09,-0.8 -7.89,-2.12 -11.98,-2.93 q -12.19,-2.39 -28.83,-6.61 a 0.65,0.64 7.7 0 1 -0.48,-0.62 v -10.82 a 0.86,0.85 8 0 1 1.09,-0.82 q 9.41,2.68 16.29,4.06 c 8.66,1.75 15.86,3.86 24.52,5.8 q 31.79,7.12 124.69,28.95 163.18,38.33 187.6,43.95 7.02,1.62 11.74,2.81 9.66,2.44 25.17,5.97 4.84,1.1 9.04,2.93 z"
     id="path852" />
  <path
     fill="#d6d90e"
     d="m 788.85137,306.02002 q 0.46,36.22 -0.05,46.45 -0.24,4.93 -3.51,9.27 c -5.49,7.29 -19.67,4.78 -21.34,15.78 q -0.69,4.52 -0.37,9.53 a 0.16,0.16 0 0 1 -0.21,0.17 l -9.76,-2.74 a 0.38,0.37 5 0 1 -0.27,-0.31 q -0.94,-7.17 1.15,-12.24 c 3.93,-9.53 9.9,-11.77 18.96,-15.35 q 3.92,-1.55 3.92,-5.85 0.01,-21.6 0.11,-43.21 z"
     id="path856" />
  <path
     fill="#833c43"
     d="m 248.11137,309.33002 0.05,20.64 a 0.75,0.76 6.1 0 1 -0.91,0.74 l -5.99,-1.26 a 1.49,1.49 0 0 1 -1.19,-1.47 l 0.1,-11.2 q 8.1,-1.18 7.94,-7.45 z"
     id="path858" />
  <path
     fill="#e8291f"
     d="m 104.39137,311.28002 -0.4,57.01 q -2.42,0.33 -5.139996,1.69 -3.3,1.65 -6.57,5.04 c -0.77,-9.74 -0.28,-19.15 -0.39,-28.74 q -0.07,-6.34 0.19,-13.09 0.26,-6.63 0.33,-13.1 3.65,-2.52 6.56,-5.64 a 1.46,1.68 9.9 0 1 0.33,-0.27 z"
     id="path862" />
  <path
     fill="#2270ba"
     d="m 818.18137,351.02002 -5.3,2.07 a 0.78,0.78 0 0 1 -1.06,-0.72 v -27.58 a 0.78,0.78 0 0 1 0.5,-0.72 l 5.3,-2.07 a 0.78,0.78 0 0 1 1.06,0.72 v 27.58 a 0.78,0.78 0 0 1 -0.5,0.72 z"
     id="path866" />
  <path
     fill="#2270ba"
     d="m 431.75137,344.40002 q -2.33,-0.97 -3.37,0.35 -1.62,2.03 -1.63,4.24 -0.06,8.22 0.2,16.44 0.1,2.93 -0.52,11.58 -0.41,5.81 -0.4,11.59 -0.87,0.16 -1.55,-0.18 a 0.8,0.79 13.3 0 1 -0.44,-0.71 v -15.48 a 0.97,0.97 0 0 0 -0.77,-0.95 l -14.61,-3.08 a 0.55,0.55 0 0 0 -0.66,0.54 v 13.92 a 1.32,1.31 6.1 0 1 -1.59,1.28 l -2.1,-0.44 a 1.45,1.46 7.8 0 1 -1.15,-1.52 l 0.95,-14.4 a 0.7,0.69 8.2 0 0 -0.55,-0.72 l -15.12,-3.18 a 0.43,0.43 0 0 0 -0.52,0.4 l -0.99,15.1 a 1.01,1.01 0 0 1 -1.22,0.92 l -4.22,-0.89 a 1.28,1.29 6.7 0 1 -1.02,-1.3 q 0.58,-17.35 0.24,-41.91 c -0.05,-4.05 6.7,-3.86 9.25,-3.38 q 17.99,3.44 35.58,8.19 2.52,0.68 6.21,3.59 z m -27.92,3.1 a 0.6,0.6 0 0 0 -0.48,-0.59 l -14.71,-3.09 a 0.6,0.6 0 0 0 -0.72,0.59 v 7.74 a 0.6,0.6 0 0 0 0.48,0.59 l 14.71,3.1 a 0.6,0.6 0 0 0 0.72,-0.59 z m 19.72,4.66 a 0.71,0.71 0 0 0 -0.56,-0.7 l -13.61,-2.86 a 0.71,0.71 0 0 0 -0.86,0.69 v 7.25 a 0.71,0.71 0 0 0 0.56,0.7 l 13.61,2.86 a 0.71,0.71 0 0 0 0.86,-0.69 z"
     id="path868" />
  <path
     fill="#e8291f"
     d="m 358.88137,371.53002 q 0.95,4.49 0.02,9.1 -0.09,0.41 -0.33,0.54 -0.28,0.15 -0.66,0.1 l -140.48,-38.44 a 0.4,0.39 7.7 0 1 -0.29,-0.38 v -9.31 a 0.35,0.36 5.4 0 1 0.42,-0.35 c 6.85,1.28 13.57,3.87 19.59,4.97 q 5.89,1.08 14.4,3.74 6.17,1.92 14.28,4.15 34.44,9.42 56.1,15.6 7,1.99 18.49,5.08 9.14,2.46 18.46,5.2 z"
     id="path870" />
  <path
     fill="#e25e1d"
     d="m 92.281374,375.02002 q 3.27,-3.39 6.57,-5.04 2.719996,-1.36 5.139996,-1.69 17.28,-6.19 34.18,-12.41 26.87,-9.89 52.6,-16.53 a 0.35,0.36 71 0 1 0.42,0.2 q 0.34,0.78 -0.39,1.1 -32.14,14.24 -77.46,30.83 c -2.97,1.09 -6.47,2.7 -9.6,3.64 q -5.619996,1.68 -10.739996,3.93 a 0.68,0.69 76.4 0 1 -0.96,-0.58 q -0.15,-2.46 0.24,-3.45 z"
     id="path872" />
  <path
     fill="#c32a28"
     d="m 889.76137,340.27002 0.08,22.9 -11.27,1.28 -0.03,-24.43 z"
     id="path874" />
  <path
     fill="#c32a28"
     d="m 431.75137,344.40002 -0.02,44.82 a 0.76,0.76 0 0 1 -0.96,0.73 l -4.74,-1.35 q -0.01,-5.78 0.4,-11.59 0.62,-8.65 0.52,-11.58 -0.26,-8.22 -0.2,-16.44 0.01,-2.21 1.63,-4.24 1.04,-1.32 3.37,-0.35 z"
     id="path878" />
  <path
     fill="#2270ba"
     d="m 491.04137,356.87002 q 0.12,3.41 -0.68,6.46 a 3.32,3.44 49.6 0 0 -0.1,1.03 q 0.52,8.7 -0.3,18.16 c -0.24,2.79 0.55,5.63 0.53,8.78 q -0.03,5.66 0.35,11.29 l -2.15,-0.02 q -1.33,-0.15 -2.27,-0.83 a 0.83,0.86 17.3 0 1 -0.35,-0.69 v -15.83 a 0.55,0.55 0 0 0 -0.44,-0.54 l -13.45,-2.83 a 0.84,0.84 0 0 0 -1.01,0.77 l -0.87,13.32 a 1.58,1.58 0 0 1 -1.68,1.47 l -0.83,-0.06 a 1.58,1.59 3.6 0 1 -1.48,-1.69 l 0.95,-14.48 a 0.76,0.77 7.3 0 0 -0.61,-0.8 l -14.66,-3.08 a 0.32,0.32 0 0 0 -0.39,0.3 l -0.99,15.04 a 0.99,1 7.8 0 1 -1.19,0.91 l -4.34,-0.92 a 0.9,0.9 0 0 1 -0.72,-0.88 v -42.01 a 2.37,2.37 0 0 1 1.6,-2.24 c 2.64,-0.91 5.08,-0.84 7.66,-0.4 q 5.3,0.9 26.62,5.77 6.32,1.45 10.8,4 z m -39.56,9.12 a 0.6,0.6 0 0 0 0.48,0.59 l 14.01,2.95 a 0.6,0.6 0 0 0 0.72,-0.59 v -7.37 a 0.6,0.6 0 0 0 -0.48,-0.59 l -14.01,-2.95 a 0.6,0.6 0 0 0 -0.72,0.59 z m 34.53,-0.25 a 0.45,0.45 0 0 0 -0.36,-0.45 l -13.85,-2.91 a 0.45,0.45 0 0 0 -0.54,0.44 v 8.02 a 0.45,0.45 0 0 0 0.36,0.45 l 13.85,2.91 a 0.45,0.45 0 0 0 0.54,-0.44 z"
     id="path880" />
  <path
     fill="#c32a28"
     d="m 491.04137,356.87002 c 1.69,0.9 2.55,1.77 2.53,3.84 q -0.29,20.94 -0.32,41.86 a 0.77,0.75 58.6 0 1 -0.08,0.34 q -0.49,0.89 -1.77,0.29 0.89,0.06 -0.56,-0.61 -0.38,-5.63 -0.35,-11.29 c 0.02,-3.15 -0.77,-5.99 -0.53,-8.78 q 0.82,-9.46 0.3,-18.16 a 3.32,3.44 49.6 0 1 0.1,-1.03 q 0.8,-3.05 0.68,-6.46 z"
     id="path884" />
  <path
     fill="#d6d90e"
     d="m 369.15137,386.42002 0.09,-3.1 a 0.45,0.45 0 0 0 -0.53,-0.45 q -0.47,0.09 -0.57,0.37 c -1.89,5.31 -5.93,14.02 -10.93,16.37 q -9.7,4.54 -17.38,8.32 c -3.98,1.96 -6.57,2.84 -11.88,4.83 a 1.17,1.18 67.7 0 0 -0.66,1.57 q 3.28,7.43 -2.72,12.37 -1.3,1.39 -2.51,1.26 -1.49,-2.72 -3.13,-5.31 -2.18,-3.43 -5.45,-5.19 0.46,-2.05 -2.34,-2.74 -10.83,-2.64 -22.57,-5.61 -40.63,-10.29 -58.86,-14.69 -20.11,-4.87 -40.57,-2.62 -24.07,2.65 -50.59,10.81 c -5.46,1.68 -17.52,6.27 -16.85,13.76 q 0.16,1.79 2.81,7.93 -7.8,-4.52 -10.81,-8.15 -2.63,-3.17 -5.95,-6.28 0.56,-0.95 0.11,-2.7 a 1.58,1.55 13.7 0 0 -0.51,-0.82 c -6.38,-5.24 -11.389996,-10.18 -13.729996,-18.36 a 1.04,1.03 71.5 0 1 0.62,-1.25 l 9.649996,-3.77 a 0.61,0.62 69.1 0 1 0.8,0.35 q 3.26,8.56 12.15,12.01 a 0.99,0.99 0 0 0 0.94,-0.11 c 3.82,-2.75 8.38,-5.12 13.17,-6.72 q 28.71,-9.6 59.39,-13.48 5.39,-0.68 11.08,-0.55 c 9.97,0.22 19.26,0.68 28.49,3.24 q 23.05,6.41 46.19,12.31 6.45,1.64 17.71,4.87 2.25,0.64 17.78,4.64 c 4.47,1.15 10.01,2.76 12.29,6.68 a 1.05,1.05 0 0 0 1.81,-0.01 l 0.45,-0.78 a 0.84,0.82 6.8 0 1 0.51,-0.39 q 3.86,-0.96 6.42,-2.62 6.8,-4.42 14.32,-8.65 6.9,-3.89 10.78,-11.18 0.42,-0.79 -0.26,-1.31 0.38,0.05 0.66,-0.1 0.24,-0.13 0.33,-0.54 0.93,-4.61 -0.02,-9.1 l 0.38,-6.36 q 3.91,4.18 8.27,6.59 a 1.14,1.14 0 0 0 1.7,-0.97 l 0.19,-11.27 z"
     id="path888" />
  <path
     fill="#2270ba"
     d="m 548.69137,369.16002 q -0.55,4.13 -0.36,8.21 0.26,5.66 0.17,8.23 -0.17,5.26 0.14,9.63 0.76,10.38 -1.84,20 l -0.57,-16.5 a 0.53,0.53 0 0 0 -0.41,-0.5 l -13.07,-2.74 a 0.65,0.66 8 0 0 -0.79,0.6 l -0.88,13.34 a 1.21,1.21 0 0 1 -1.28,1.13 l -1.63,-0.11 a 1.22,1.23 3.7 0 1 -1.14,-1.31 l 0.91,-13.95 a 1.12,1.12 0 0 0 -0.89,-1.17 l -13.57,-2.85 a 0.57,0.57 0 0 0 -0.69,0.52 l -0.97,14.8 a 0.93,0.92 7.8 0 1 -1.12,0.84 l -4.17,-0.87 a 1.1,1.11 6.8 0 1 -0.87,-1.12 q 0.42,-13.14 0.29,-40.13 c -0.02,-2.65 1.01,-3.65 3.43,-4.03 q 4.02,-0.63 8.23,0.27 12.08,2.58 24.01,5.27 4.38,0.99 7.07,2.44 z m -21.34,5.74 a 0.72,0.72 0 0 0 -0.57,-0.7 l -13.13,-2.77 a 0.72,0.72 0 0 0 -0.87,0.71 v 7.51 a 0.72,0.72 0 0 0 0.57,0.7 l 13.13,2.76 a 0.72,0.72 0 0 0 0.87,-0.71 z m 4.43,9.3 a 0.66,0.66 0 0 0 0.52,0.65 l 13.29,2.79 a 0.66,0.66 0 0 0 0.8,-0.64 v -7.63 a 0.66,0.66 0 0 0 -0.52,-0.65 l -13.29,-2.79 a 0.66,0.66 0 0 0 -0.8,0.64 z"
     id="path890" />
  <path
     fill="#833c43"
     d="m 889.84137,363.17002 -0.07,31.19 q -6.24,-3.88 -11.12,-9.65 l -0.08,-20.26 z"
     id="path894" />
  <path
     fill="#c32a28"
     d="m 548.69137,369.16002 3.62,2.26 a 2.69,2.69 0 0 1 1.26,2.28 v 41.88 a 1.03,1.03 0 0 1 -1.27,1 l -5.5,-1.35 q 2.6,-9.62 1.84,-20 -0.31,-4.37 -0.14,-9.63 0.09,-2.57 -0.17,-8.23 -0.19,-4.08 0.36,-8.21 z"
     id="path896" />
  <path
     fill="#2270ba"
     d="m 610.43137,385.58002 c -2.79,5.23 -3.21,11.41 -3.41,17.19 l -1.06,3.64 a 5.18,5.22 52.6 0 0 -0.21,1.53 q 0.08,11.21 -0.12,14.11 -0.11,1.54 -1.1,2.02 a 0.84,0.84 0 0 0 -0.47,0.72 l -0.1,2.31 0.1,-15.28 a 0.84,0.85 5.9 0 0 -0.67,-0.83 l -12.38,-2.6 a 0.75,0.75 0 0 0 -0.9,0.68 l -0.81,12.37 a 1.77,1.77 0 0 1 -1.77,1.65 h -0.42 a 1.25,1.24 0 0 1 -1.25,-1.24 v -14.03 a 0.71,0.71 0 0 0 -0.56,-0.69 l -12.79,-2.69 a 0.57,0.57 0 0 0 -0.69,0.52 l -0.91,13.87 a 1.19,1.19 0 0 1 -1.43,1.09 l -3.37,-0.71 a 1.3,1.3 0 0 1 -1.03,-1.27 v -40.76 a 2.46,2.44 83.5 0 1 1.89,-2.39 c 3.09,-0.72 6.46,-0.45 10.2,0.38 q 20.29,4.51 27.5,6.47 3.43,0.94 5.76,3.94 z m -38.52,7.86 a 0.54,0.54 0 0 0 0.43,0.53 l 12.85,2.7 a 0.54,0.54 0 0 0 0.65,-0.53 v -7.97 a 0.54,0.54 0 0 0 -0.43,-0.53 l -12.85,-2.7 a 0.54,0.54 0 0 0 -0.65,0.53 z m 31.82,-0.98 a 0.65,0.65 0 0 0 -0.52,-0.64 l -12.17,-2.56 a 0.65,0.65 0 0 0 -0.78,0.64 v 7.56 a 0.65,0.65 0 0 0 0.52,0.64 l 12.17,2.56 a 0.65,0.65 0 0 0 0.78,-0.64 z"
     id="path900" />
  <path
     fill="#2270ba"
     d="m 369.15137,386.42002 c -0.69,10.75 -8.21,20.82 -16.82,26.76 q -11.2,7.72 -17.33,9.93 -5.09,1.84 -9.92,4.17 -0.35,-0.07 -0.51,-0.58 6,-4.94 2.72,-12.37 a 1.17,1.18 67.7 0 1 0.66,-1.57 c 5.31,-1.99 7.9,-2.87 11.88,-4.83 q 7.68,-3.78 17.38,-8.32 c 5,-2.35 9.04,-11.06 10.93,-16.37 q 0.1,-0.28 0.57,-0.37 a 0.45,0.45 0 0 1 0.53,0.45 z"
     id="path904" />
  <path
     fill="#2270ba"
     d="m 889.77137,394.36002 q 12.45,4.05 30.64,9.09 8.33,2.3 13.06,9.01 c 3.57,5.07 4.19,11.82 4.2,18.08 q -1.73,-1.96 -3.02,-4.12 -1.63,-2.75 -3,-4.07 -3.15,-3.05 -6.62,-5.63 -3.96,-3.22 -7.26,-4.14 -23.12,-6.4 -23.47,-6.51 -7.26,-2.32 -14.62,-2.78 a 1.42,1.42 0 0 1 -1.34,-1.44 l 0.31,-17.14 q 4.88,5.77 11.12,9.65 z"
     id="path908" />
  <path
     fill="#833c43"
     d="m 610.43137,385.58002 q 0.46,1.38 0.2,2.45 c -0.63,0.91 -1.04,1.82 -0.86,2.98 0.45,2.86 1.16,9.6 -1.06,11.39 a 0.26,0.26 0 0 1 -0.43,-0.22 l 0.07,-1.03 a 0.23,0.23 0 0 0 -0.43,-0.12 l -0.9,1.74 c 0.2,-5.78 0.62,-11.96 3.41,-17.19 z"
     id="path910" />
  <path
     fill="#2270ba"
     d="m 662.52137,395.03002 q -2.41,3.76 -1.23,8.36 a 4.42,4.68 37.7 0 1 0.13,1.31 q -0.42,10.52 -0.73,21.03 -0.21,7.15 0.74,14.13 -1.25,0.09 -1.95,-0.37 -0.7,-0.44 -0.63,-1.69 0.39,-7 0.38,-14.2 a 0.71,0.71 0 0 0 -0.56,-0.68 l -12.65,-2.66 a 0.6,0.6 0 0 0 -0.72,0.63 q 0.49,6.45 -0.96,13.41 a 1.36,1.35 50.9 0 1 -2.68,-0.28 v -13.96 a 1.07,1.07 0 0 0 -0.85,-1.05 l -11.87,-2.5 a 0.57,0.57 0 0 0 -0.68,0.52 l -0.94,14.25 a 0.88,0.88 0 0 1 -1.06,0.81 l -3.8,-0.8 a 0.8,0.81 5.7 0 1 -0.64,-0.79 v -41 a 1.99,1.98 85.4 0 1 1.66,-1.96 l 4.51,-0.75 a 2.71,2.66 45.6 0 1 0.92,0.02 q 17.12,3.44 33.61,8.22 z m -34.24,10.88 a 0.46,0.46 0 0 0 0.36,0.48 l 11.99,2.52 a 0.46,0.46 0 0 0 0.55,-0.42 l 0.51,-7.76 a 0.46,0.46 0 0 0 -0.36,-0.48 l -11.99,-2.52 a 0.46,0.46 0 0 0 -0.55,0.42 z m 17.74,4.07 a 0.32,0.32 0 0 0 0.25,0.31 l 12.57,2.64 a 0.32,0.32 0 0 0 0.39,-0.31 v -8.12 a 0.32,0.32 0 0 0 -0.25,-0.31 l -12.57,-2.65 a 0.32,0.32 0 0 0 -0.39,0.31 z"
     id="path912" />
  <path
     fill="#6e9c77"
     d="m 610.63137,388.03002 q -0.15,5.64 -0.15,11.3 -0.01,5.2 -0.34,11.29 -0.46,8.59 0.18,16.88 a 0.9,0.9 0 0 1 -1.12,0.94 l -5.24,-1.34 0.1,-2.31 a 0.84,0.84 0 0 1 0.47,-0.72 q 0.99,-0.48 1.1,-2.02 0.2,-2.9 0.12,-14.11 a 5.18,5.22 52.6 0 1 0.21,-1.53 l 1.06,-3.64 0.9,-1.74 a 0.23,0.23 0 0 1 0.43,0.12 l -0.07,1.03 a 0.26,0.26 0 0 0 0.43,0.22 c 2.22,-1.79 1.51,-8.53 1.06,-11.39 -0.18,-1.16 0.23,-2.07 0.86,-2.98 z"
     id="path914" />
  <path
     fill="#c32a28"
     d="m 661.43137,439.86002 q -0.95,-6.98 -0.74,-14.13 0.31,-10.51 0.73,-21.03 a 4.42,4.68 37.7 0 0 -0.13,-1.31 q -1.18,-4.6 1.23,-8.36 l 3.04,2.95 a 1.01,1.07 20.9 0 1 0.31,0.75 v 41.26 a 0.69,0.7 6 0 1 -0.84,0.68 z"
     id="path918" />
  <path
     fill="#e8291f"
     d="m 927.67137,426.07002 q 0.95,3.33 0.3,8.21 -13.24,-3.86 -25.06,-6.49 -3.57,-0.79 -4.45,-1.06 c -5.08,-1.58 -10.52,-2.44 -15.22,-3.84 q -7.16,-2.13 -12.2,-3.19 c -12.21,-2.57 -24.01,-6.32 -36.14,-8.92 -7.33,-1.57 -13.75,-3.5 -21.34,-5.51 q -1.92,-0.5 -6.74,1.03 -1.49,-0.16 -2.77,-1.06 a 0.89,0.87 19.9 0 1 -0.38,-0.79 l 0.39,-5.58 q 5.96,-2.25 9.81,-1.47 5.87,1.17 32.25,8.02 c 11.24,2.91 20.92,4.9 29.74,7.6 7,2.14 15.03,3.96 24.24,6.1 q 1.54,0.36 13.74,3.67 6.83,1.84 13.83,3.28 z"
     id="path920" />
  <path
     fill="#32578e"
     d="m 804.06137,398.87002 -0.39,5.58 a 0.89,0.87 19.9 0 0 0.38,0.79 q 1.28,0.9 2.77,1.06 l -20.24,3.96 q -0.69,0.06 -0.8,-0.53 -0.66,-3.56 -0.37,-7.61 z"
     id="path924" />
  <path
     fill="#d6d90e"
     d="m 785.41137,402.12002 q -0.29,4.05 0.37,7.61 0.11,0.59 0.8,0.53 l -0.36,0.15 a 0.68,0.67 79.3 0 0 -0.41,0.61 l -0.09,9.18 c -0.45,9.5 -0.03,18.92 -0.05,28.42 q 0,4.44 0.31,8.9 0.17,6.36 0.28,12.81 0.17,9.26 0.17,9.29 c 1,6.32 6.24,11.29 11.14,14.7 2.36,1.64 9.58,0.91 12.36,-0.57 a 0.53,0.53 0 0 1 0.78,0.4 q 1.64,12.4 1.03,24.95 a 0.33,0.33 0 0 1 -0.54,0.23 l -26.96,-23.31 a 1.97,2.08 4.6 0 1 -0.46,-0.57 l -4.26,-7.9 a 4.85,4.89 27.7 0 1 -0.55,-1.79 q -0.38,-3.81 -1.66,-8.94 -0.3,-1.23 0,-6.95 c 0.37,-6.76 -0.06,-12.95 0.33,-19.38 0.43,-7.17 -0.5,-13.96 -0.16,-20.68 q 0.44,-8.49 0.08,-19.58 -0.03,-1 -0.44,-1.55 2.68,-4.33 0.64,-9.86 4.16,0.85 7.65,3.3 z"
     id="path926" />
  <path
     fill="#2270ba"
     d="m 717.82137,408.92002 q -2.23,-0.1 -2,3.32 c 0.59,8.77 0.29,18.51 0.53,26.25 q 0.21,6.52 0.28,13.02 -2.03,0.03 -4.3,-0.94 a 0.78,0.78 0 0 1 -0.48,-0.72 v -14.66 a 0.84,0.85 5.9 0 0 -0.67,-0.83 l -11.59,-2.44 a 0.4,0.4 0 0 0 -0.48,0.37 l -0.88,13.48 a 1.08,1.07 3.7 0 1 -1.15,1 l -0.78,-0.05 a 0.97,0.96 1.9 0 1 -0.91,-0.96 v -14.1 a 0.79,0.8 5.8 0 0 -0.63,-0.78 l -10.93,-2.3 a 0.69,0.7 7.6 0 0 -0.83,0.64 l -0.9,13.63 a 1.17,1.17 0 0 1 -1.41,1.07 l -3.28,-0.69 a 1.27,1.29 6 0 1 -1.02,-1.27 q 0.22,-24.51 0.09,-38.48 c -0.04,-4.48 3.61,-4.09 6.92,-4.06 q 1.56,0.01 4.09,0.57 7.22,1.59 23.3,5.62 2.82,0.7 7.03,3.31 z m -22.38,4 a 0.51,0.51 0 0 0 -0.41,-0.5 l -11.22,-2.35 a 0.51,0.51 0 0 0 -0.61,0.5 v 7.61 a 0.51,0.51 0 0 0 0.41,0.5 l 11.22,2.35 a 0.51,0.51 0 0 0 0.61,-0.5 z m 4.04,8.73 a 0.61,0.61 0 0 0 0.48,0.6 l 11.2,2.36 a 0.61,0.61 0 0 0 0.74,-0.6 v -7.26 a 0.61,0.61 0 0 0 -0.48,-0.6 l -11.2,-2.36 a 0.61,0.61 0 0 0 -0.74,0.6 z"
     id="path928" />
  <path
     fill="#6e9c77"
     d="m 490.84137,402.59002 q 1.45,0.67 0.56,0.61 -1.32,0.06 -2.71,-0.63 z"
     id="path932" />
  <path
     fill="#d6d90e"
     d="m 774.18137,493.54002 q 0.25,0.32 -0.04,0.59 -0.24,0.22 -0.53,0.14 -4.29,-1.21 -17.85,-3.75 -6.06,-1.13 -17.88,-3.63 -19.21,-4.06 -38.88,-8.07 c -4.53,-0.92 -9.7,-2.4 -14.8,-3.41 q -19.2,-3.81 -52.05,-10.78 -72.79,-15.43 -150.56,-31.87 c -10.49,-2.22 -24.59,-5.61 -36.82,-8.11 q -37.78,-7.75 -73.59,-15.69 a 0.64,0.64 0 0 1 -0.42,-0.94 l 2.35,-4.07 a 1.37,1.36 20.7 0 1 1.46,-0.65 l 393.93,82.84 a 2.68,2.71 82.8 0 1 1.85,1.42 q 1.52,3.01 3.83,5.98 z"
     id="path934" />
  <path
     fill="#e8291f"
     d="m 230.91137,603.14002 a 0.41,0.42 3.4 0 1 -0.44,0.4 l -0.41,-0.03 a 0.38,0.38 0 0 1 -0.36,-0.38 q -0.09,-13.33 -0.59,-30.69 c -0.56,-19.58 -0.5,-36.4 -0.96,-57.28 -0.74,-34.16 -0.42,-68.62 -0.61,-101.68 q -0.03,-4.2 0.11,-8.93 a 0.77,0.76 10.2 0 1 1.01,-0.7 l 4.64,1.57 a 1.41,1.41 0 0 1 0.97,1.34 q -0.08,31.43 -0.56,59.47 c -0.45,25.76 -0.22,48.06 -1.07,71.72 q -0.31,8.62 -0.43,22.46 -0.08,10.77 -1.3,42.73 z"
     id="path936" />
  <path
     fill="#833c43"
     d="m 717.82137,408.92002 0.2,42.22 a 0.34,0.34 0 0 1 -0.16,0.29 q -0.42,0.26 -1.23,0.08 -0.07,-6.5 -0.28,-13.02 c -0.24,-7.74 0.06,-17.48 -0.53,-26.25 q -0.23,-3.42 2,-3.32 z"
     id="path938" />
  <path
     fill="#2270ba"
     d="m 124.51137,424.30002 q 2.82,3.63 6.55,7.19 c 4.09,3.9 8.98,6.58 13.4,9.62 8.15,5.59 12.93,8.74 12.88,18.62 q -0.36,63.09 -0.62,126.26 l -3.04,3.32 a 1.55,1.54 47.8 0 1 -2.37,-0.12 q -1.53,-2.04 -2.87,-3.87 c -0.94,-1.29 -2.78,-2.26 -3.92,-3.77 q 0.02,-18.71 0.07,-37.32 0.07,-23.33 0.2,-81.11 0.01,-3.73 -4.24,-6.31 -7.99,-4.85 -15.8,-9.96 c -12.51,-8.18 -19.3,-21.84 -17,-36.98 q 3.32,3.11 5.95,6.28 3.01,3.63 10.81,8.15 z"
     id="path940" />
  <path
     fill="#2270ba"
     d="m 763.62137,418.09002 q -0.97,5.3 -0.94,10.71 c 0.03,7.06 -0.04,10.62 -0.22,16.06 a 1.05,1.08 63.4 0 1 -0.21,0.6 q -0.55,0.75 -0.33,1.78 0.26,1.15 -0.24,1.56 l -0.06,-2.79 a 0.77,0.77 0 0 0 -0.61,-0.74 l -10.05,-2.11 a 0.84,0.84 0 0 0 -1.01,0.82 v 12.67 a 1.27,1.27 0 0 1 -1.53,1.24 l -1.32,-0.28 a 1.22,1.21 5.8 0 1 -0.97,-1.19 v -13.61 a 0.81,0.82 5.6 0 0 -0.65,-0.8 l -10.76,-2.26 a 0.6,0.6 0 0 0 -0.73,0.59 v 12.84 a 1.68,1.68 0 0 1 -2.02,1.64 l -2.41,-0.51 a 1.57,1.57 0 0 1 -1.25,-1.54 v -38.31 a 2.64,2.62 79.7 0 1 1.69,-2.46 q 2.62,-0.99 5.59,-0.44 14.58,2.66 28.03,6.53 z m -29,11.29 a 0.6,0.6 0 0 0 0.48,0.59 l 10.39,2.19 a 0.6,0.6 0 0 0 0.72,-0.59 v -7.19 a 0.6,0.6 0 0 0 -0.48,-0.59 l -10.39,-2.19 a 0.6,0.6 0 0 0 -0.72,0.59 z m 26.78,6.18 v -7.64 a 0.6,0.62 5.8 0 0 -0.48,-0.6 l -9.89,-2.08 a 0.82,0.82 0 0 0 -0.98,0.8 v 6.18 a 1.37,1.38 5.9 0 0 1.09,1.35 l 10.09,2.12 a 0.14,0.13 6.8 0 0 0.17,-0.13 z"
     id="path944" />
  <path
     fill="#2270ba"
     d="m 785.98137,457.52002 q -0.31,-4.46 -0.31,-8.9 c 0.02,-9.5 -0.4,-18.92 0.05,-28.42 5.44,-2.46 11.67,-2.94 16.76,-4.41 q 3.03,-0.88 4.29,-0.38 2.25,0.9 2.22,3.31 -0.19,17.57 0.09,32.86 a 1.68,1.67 86 0 1 -1.47,1.7 l -2.68,0.32 a 1.17,1.17 0 0 1 -1.31,-1.16 v -9.65 a 0.72,0.73 81.6 0 0 -0.94,-0.69 q -2.63,0.81 -3.87,1.77 a 0.89,0.89 0 0 1 -0.89,0.12 q -2.21,-0.9 -2.67,1.54 -0.83,4.47 -1.07,8.74 a 2.15,2.16 86 0 1 -1.75,2 z"
     id="path948" />
  <path
     fill="#2270ba"
     d="m 848.52137,422.72002 0.42,28.01 a 1.2,0.94 58.3 0 0 0.03,0.16 l 1.44,5.32 q 0.22,1.07 -0.04,2.74 a 0.61,0.62 10.3 0 1 -0.73,0.51 l -3.76,-0.79 a 0.83,0.83 0 0 1 -0.66,-0.81 v -11.54 a 0.34,0.35 6.2 0 0 -0.27,-0.34 l -8.36,-1.76 a 0.42,0.41 5.8 0 0 -0.5,0.4 v 10.17 a 1.16,1.17 1.8 0 1 -1.24,1.17 l -0.78,-0.05 a 1.2,1.2 0 0 1 -1.11,-1.2 v -11.08 a 0.37,0.38 5.6 0 0 -0.3,-0.37 l -8.2,-1.72 a 0.16,0.16 0 0 0 -0.19,0.15 l -0.71,10.79 a 1.3,1.3 0 0 1 -1.57,1.19 l -2.44,-0.51 a 1.26,1.24 6 0 1 -1,-1.22 v -33.25 a 1.12,1.13 76.9 0 1 0.63,-1.01 c 3.89,-1.91 6.05,-1.23 10.96,-0.08 q 9.6,2.25 18.38,5.12 z m -15.64,6.01 a 1.08,1.08 0 0 0 -0.86,-1.06 l -7.15,-1.5 a 0.6,0.59 5.9 0 0 -0.72,0.58 v 4.99 a 1.12,1.12 0 0 0 0.89,1.1 l 7.21,1.52 a 0.52,0.53 5.8 0 0 0.63,-0.52 z m 3.65,5.77 a 1.06,1.06 0 0 0 0.84,1.04 l 6.99,1.47 a 0.58,0.58 0 0 0 0.71,-0.56 v -4.89 a 1.1,1.1 0 0 0 -0.87,-1.07 l -7.05,-1.5 a 0.51,0.52 5.8 0 0 -0.61,0.51 z"
     id="path950" />
  <path
     fill="#e25e1d"
     d="m 937.67137,430.54002 0.44,66.68 c -3.98,-0.6 -8.1,-0.51 -9.62,3.86 l -0.29,-5.85 -0.23,-60.95 q 0.65,-4.88 -0.3,-8.21 -0.65,-5.13 -2.64,-9.35 3.47,2.58 6.62,5.63 1.37,1.32 3,4.07 1.29,2.16 3.02,4.12 z"
     id="path952" />
  <path
     fill="#2270ba"
     d="m 313.48137,417.46002 q 3.27,1.76 5.45,5.19 1.64,2.59 3.13,5.31 -0.03,0.64 0.31,0.72 0.06,0.24 -0.03,0.43 l -0.85,0.02 a 1.55,1.57 61.9 0 1 -0.91,-0.27 q -2.35,-1.6 -4.74,-3.13 -2.42,-1.55 -4.8,-4.21 0.61,-1.93 2.44,-4.06 z"
     id="path954" />
  <path
     fill="#c32a28"
     d="m 763.62137,418.09002 3.75,2.94 a 0.77,0.77 0 0 1 0.3,0.61 v 40.07 a 0.77,0.78 5.8 0 1 -0.93,0.76 l -4.23,-0.89 a 1.4,1.41 6.7 0 1 -1.11,-1.41 l 0.28,-11.37 q 0.5,-0.41 0.24,-1.56 -0.22,-1.03 0.33,-1.78 a 1.05,1.08 63.4 0 0 0.21,-0.6 c 0.18,-5.44 0.25,-9 0.22,-16.06 q -0.03,-5.41 0.94,-10.71 z"
     id="path956" />
  <path
     fill="#e8291f"
     d="m 311.04137,421.52002 q 2.38,2.66 4.8,4.21 2.39,1.53 4.74,3.13 a 1.55,1.57 61.9 0 0 0.91,0.27 l 0.85,-0.02 q 0.44,0.85 0.54,1.87 c 0.73,6.95 0.08,15.57 0.06,20.57 q -0.09,21.66 -0.47,43.28 -6.14,-0.09 -12.02,-1.57 0.03,-28.12 0.02,-56.28 0,-7.45 0.57,-15.46 z"
     id="path958" />
  <path
     fill="#833c43"
     d="m 850.41137,456.21002 -1.44,-5.32 a 1.2,0.94 58.3 0 1 -0.03,-0.16 l -0.42,-28.01 q 2.12,1.84 2.12,3.26 0.02,15.09 -0.23,30.23 z"
     id="path962" />
  <path
     fill="#2270ba"
     d="m 872.02137,462.77002 a 1.02,1.03 40.8 0 1 -2.01,0.15 q -0.15,-0.57 -0.11,-2.19 0.11,-4.51 0.1,-8.68 a 0.5,0.5 0 0 0 -0.4,-0.48 l -8.27,-1.74 a 0.23,0.23 0 0 0 -0.28,0.23 v 9.96 a 1.48,1.47 5.9 0 1 -1.78,1.44 l -1.74,-0.37 a 1.58,1.57 5.7 0 1 -1.26,-1.53 q -0.07,-14.61 0.29,-21.83 0.18,-3.5 -0.03,-8.76 c -0.13,-3.39 3.83,-3.95 6.21,-3.34 q 11.25,2.88 17.67,4.39 c 3.58,0.84 6.18,2.38 6.21,6.2 q 0.06,9.33 -0.26,30.49 a 0.7,0.71 6.3 0 1 -0.85,0.69 l -3.62,-0.76 a 0.84,0.86 5.8 0 1 -0.67,-0.84 v -11.36 a 0.31,0.3 5.8 0 0 -0.25,-0.3 l -7.63,-1.61 a 0.11,0.11 0 0 0 -0.13,0.1 z m -10.75,-22.49 a 1.06,1.06 0 0 0 0.82,1.05 l 6.96,1.6 a 0.58,0.58 0 0 0 0.71,-0.55 l 0.1,-4.88 a 1.1,1.1 0 0 0 -0.85,-1.09 l -7.02,-1.62 a 0.51,0.52 6.9 0 0 -0.63,0.5 z m 16.45,-1.79 q -1.31,-0.25 -3.89,-0.97 a 0.51,0.51 0 0 0 -0.64,0.5 l 0.08,5.24 a 0.86,0.85 4.3 0 0 0.72,0.83 q 0.1,0.02 2.53,0.49 1.3,0.26 3.88,0.99 a 0.51,0.51 0 0 0 0.65,-0.5 l -0.09,-5.24 a 0.86,0.85 4.3 0 0 -0.72,-0.83 q -0.09,-0.03 -2.52,-0.51 z"
     id="path966" />
  <path
     fill="#6e9c77"
     d="m 324.57137,426.70002 q 0.16,0.51 0.51,0.58 l -2.71,1.4 q -0.34,-0.08 -0.31,-0.72 1.21,0.13 2.51,-1.26 z"
     id="path970" />
  <path
     fill="#2270ba"
     d="m 781.58137,564.13002 q -4.86,2.87 -10.73,4.55 -0.18,-11.48 -0.14,-14.7 0.05,-3.7 -1.21,-6.17 a 1.27,1.04 12.8 0 0 -0.24,-0.31 l -11.46,-10.92 a 1.63,1.58 70.7 0 0 -0.84,-0.42 l -425.11,-76.29 a 0.69,0.69 0 0 1 -0.57,-0.68 v -24.64 a 0.74,0.73 2.8 0 1 0.81,-0.73 q 1.29,0.12 7.08,1.14 27.03,4.74 111.68,20.89 120.14,22.92 192.1,36.47 21.52,4.05 24.82,4.68 42.07,7.99 84.48,15.89 1.91,0.35 3.04,1.68 10.9,12.86 21.1,22.89 5.33,5.25 5.35,12.76 0.01,6.83 -0.16,13.91 z"
     id="path974" />
  <path
     fill="#2270ba"
     d="m 897.72137,457.95002 a 0.47,0.47 0 0 0 -0.57,0.43 l -0.68,10.35 a 0.82,0.82 0 0 1 -0.98,0.75 l -2.66,-0.56 a 1.02,1.02 0 0 1 -0.81,-1 v -31.41 a 1,1.02 73.5 0 1 0.47,-0.85 q 3.36,-2.17 6.77,-1.34 12.89,3.14 18.26,4.73 2.14,0.63 3.33,2.75 a 0.72,0.74 29.1 0 1 0.1,0.37 v 31.74 a 0.95,0.94 6 0 1 -1.14,0.92 l -3.07,-0.64 a 1.38,1.38 0 0 1 -1.09,-1.44 l 0.65,-9.85 a 1.07,1.06 7.8 0 0 -0.85,-1.11 l -6.85,-1.44 a 0.86,0.86 0 0 0 -1.04,0.85 c 0.03,2.97 0.08,6.65 -1.33,8.98 a 0.75,0.75 0 0 1 -1.39,-0.39 v -9.83 a 0.63,0.63 0 0 0 -0.51,-0.62 z m 4.13,-13.83 q -1.33,-0.31 -3.95,-1.14 a 0.53,0.53 0 0 0 -0.68,0.49 l -0.09,5.37 a 0.88,0.87 6.3 0 0 0.7,0.88 q 0.1,0.02 2.57,0.59 1.33,0.32 3.94,1.15 a 0.53,0.53 0 0 0 0.69,-0.49 l 0.09,-5.37 a 0.88,0.87 6.3 0 0 -0.71,-0.88 q -0.09,-0.02 -2.56,-0.6 z m 9.53,8.66 q 1.33,0.28 3.93,1.08 a 0.52,0.52 0 0 0 0.67,-0.5 l 0.03,-5.32 a 0.87,0.86 5.6 0 0 -0.71,-0.86 q -0.1,-0.03 -2.55,-0.56 -1.32,-0.3 -3.93,-1.1 a 0.52,0.52 0 0 0 -0.67,0.5 l -0.03,5.32 a 0.87,0.86 5.6 0 0 0.72,0.86 q 0.09,0.03 2.54,0.58 z"
     id="path976" />
  <path
     fill="#e8291f"
     d="m 928.20137,495.23002 0.29,5.85 q -0.14,0.59 -0.6,1.24 l -114.42,-23.6 a 3.06,2.8 47.5 0 0 -0.68,-0.06 l -19.57,0.36 a 0.84,0.85 87.2 0 1 -0.87,-0.78 v -0.05 a 1.12,1.12 0 0 1 0.94,-1.18 q 5.94,-0.96 13.24,-3.62 c 3.02,-1.1 5.66,-1.12 9.12,-0.5 q 17.06,3.07 42,8.37 c 13.48,2.87 25.8,4.94 38.75,7.62 q 4.42,0.91 15.95,2.98 7.92,1.42 15.85,3.37 z"
     id="path986" />
  <path
     fill="#e8291f"
     d="m 144.52137,581.55002 c 1.14,1.51 2.98,2.48 3.92,3.77 q 1.34,1.83 2.87,3.87 a 1.55,1.54 47.8 0 0 2.37,0.12 l 3.04,-3.32 c 1.91,1.06 4.26,1.83 5.88,3.06 q 8.46,6.39 5.36,18.77 -0.35,-0.72 -1.05,0.3 a 1.77,1.86 69.6 0 0 -0.23,0.47 q -1.25,3.72 -2.34,7.45 -0.58,1.98 0.23,1.95 -2.61,4.66 2.91,8.03 a 0.28,0.26 47.4 0 0 0.24,0.02 q 0.4,-0.17 0.25,-0.77 0.42,3.32 1.38,4.23 6.89,6.51 15.68,10.56 c 4.35,2.02 12.49,4.92 18.52,6.16 q 16.52,3.42 34.83,3.54 c 35.75,0.26 72.69,-3.97 108.51,-9.5 q 42.2,-6.51 88.71,-15.66 c 24.81,-4.89 45.07,-9.2 64.48,-12.45 l 8.59,26.44 q -68.31,13.8 -125.24,23.97 -35.17,6.28 -74.78,10.3 c -24.55,2.49 -48.47,3.08 -71.27,1.55 -13.75,-0.92 -29.79,-3.69 -43.36,-9.29 q -9.48,-3.91 -12.14,-5.4 -5.45,-3.04 -14.3,-10.86 -7.98,-7.87 -10.72,-13.37 -5.68,-11.37 -11.07,-22.87 a 3.92,3.57 28.3 0 1 -0.26,-0.74 q -1.19,-4.81 -4.48,-6.36 -0.19,-2.86 -1.15,-6.09 c -1.54,-5.14 -2.97,-10.57 -0.4,-15.62 a 0.64,0.64 0 0 0 -0.73,-0.91 q -5.73,1.47 -10.33,5.41 a 1.11,1.12 23.3 0 1 -0.67,0.27 q -0.51,0.02 -0.78,-0.19 -8.11,-6.81 -16.88,-12.65 -13.009996,-8.64 -15.329996,-10.31 c -6.88,-4.91 -13.38,-8.39 -21.32,-13.86 -15.4,-10.61 -33.91,-22.63 -47.97,-33.25 a 1.28,1.28 0 0 1 -0.34,-1.66 c 4.99,-8.76 10.23,-15.45 18.33,-26.57 q 2.44,-3.34 5.1,-6.12 a 0.7,0.69 42.8 0 1 0.96,-0.03 q 26.67,23.58 34.8,31.01 13.37,12.21 30.059996,30.53 c 6.76,7.42 12.3,15.55 17.57,22.03 3.47,4.28 5.91,9.14 8.91,13.7 a 1.61,1.62 85.2 0 0 0.69,0.58 q 1.36,0.61 2.95,-0.24 z"
     id="path988" />
  <path
     fill="#e25e1d"
     d="m 322.47137,494.83002 -0.16,37.74 q -6.1,-1.22 -12.2,0.12 l 0.34,-39.43 q 5.88,1.48 12.02,1.57 z"
     id="path990" />
  <path
     fill="#d6d90e"
     d="m 938.11137,497.22002 q 0.36,6.63 -1.48,11.54 c -3.95,10.59 -8.7,15.97 -19.52,19.42 q -2.44,0.26 -4.87,0.89 -3.34,0.87 -4.83,1.05 -9.4,1.13 -18.87,1.05 c -2.15,-0.02 -4.4,0.45 -6.61,0.65 q -8.25,0.78 -16.47,1.04 -5.83,0.19 -7.93,1.44 -3.5,2.09 -3.52,6.96 -0.24,57.86 -0.31,133.53 a 0.62,0.63 4.7 0 1 -0.72,0.62 q -3.38,-0.53 -6.66,0.28 a 0.64,0.64 0 0 1 -0.8,-0.61 q -0.33,-14.74 -0.28,-20.85 0.38,-47.73 -0.35,-117.99 -0.12,-11.07 9.82,-15.17 1.98,-0.81 7.4,-1.17 10.08,-0.67 40.75,-2.37 7.53,-0.41 13.44,-3.4 3.27,1.55 5.2,-1.49 0.36,-0.55 1.59,-0.9 2.24,0.66 4.03,1.97 a 1.43,1.42 51.6 0 0 1.41,0.17 l 3.6,-1.52 a 0.66,0.66 0 0 0 -0.33,-1.26 l -4.24,0.51 a 0.65,0.65 0 0 1 -0.71,-0.51 l -0.65,-3.2 1.06,-3.08 q 0.74,-1.44 0.63,-2.5 0.46,-0.65 0.6,-1.24 c 1.52,-4.37 5.64,-4.46 9.62,-3.86 z m -39.61,26.43 -8.82,4.73 a 0.23,0.23 0 0 0 -0.09,0.31 l 0.17,0.31 a 1.65,3.46 61.8 0 0 3.83,-0.18 l 3.12,-1.67 a 1.65,3.46 61.8 0 0 2.27,-3.09 l -0.17,-0.32 a 0.23,0.23 0 0 0 -0.31,-0.09 z"
     id="path992" />
  <path
     fill="#2270ba"
     d="m 927.26137,504.82002 -1.06,3.08 q -0.72,0.68 -0.74,1.94 a 0.85,0.84 74.9 0 1 -0.4,0.7 l -1.97,1.2 q -1.23,0.35 -1.59,0.9 -1.93,3.04 -5.2,1.49 6.38,-4.29 10.96,-9.31 z"
     id="path994" />
  <path
     fill="#6e9c77"
     d="m 926.20137,507.90002 0.65,3.2 a 0.65,0.65 0 0 0 0.71,0.51 l 4.24,-0.51 a 0.66,0.66 0 0 1 0.33,1.26 l -3.6,1.52 a 1.43,1.42 51.6 0 1 -1.41,-0.17 q -1.79,-1.31 -4.03,-1.97 l 1.97,-1.2 a 0.85,0.84 74.9 0 0 0.4,-0.7 q 0.02,-1.26 0.74,-1.94 z"
     id="path996" />
  <path
     fill="#e8291f"
     d="m 809.26137,672.39002 h -0.03 a 0.4,0.4 0 0 1 -0.45,-0.39 q -3.11,-82.25 -3.77,-152.58 a 0.46,0.46 0 0 1 0.76,-0.35 l 5.5,4.74 a 2.52,2.5 20.9 0 1 0.86,1.91 q -0.34,69.02 -2.44,146.18 a 0.51,0.5 86.7 0 1 -0.43,0.49 z"
     id="path998" />
  <path
     fill="#6e9c77"
     d="m 898.50137,523.65002 a 0.23,0.23 0 0 1 0.31,0.09 l 0.17,0.32 a 1.65,3.46 61.8 0 1 -2.27,3.09 l -3.12,1.67 a 1.65,3.46 61.8 0 1 -3.83,0.18 l -0.17,-0.31 a 0.23,0.23 0 0 1 0.09,-0.31 z"
     id="path1000" />
  <path
     fill="#2270ba"
     d="m 917.11137,528.18002 c -7.08,3.41 -15.01,5.51 -21.68,8.55 q -2.5,1.14 -3.97,3.82 a 1.88,1.85 60.5 0 0 -0.23,0.86 l -0.11,115.3 q -5.32,-0.99 -10.36,-0.27 -0.16,-93.1 0,-120.59 0.01,-1.36 1.17,-4.03 c 2.21,-0.2 4.46,-0.67 6.61,-0.65 q 9.47,0.08 18.87,-1.05 1.49,-0.18 4.83,-1.05 2.43,-0.63 4.87,-0.89 z"
     id="path1002" />
  <path
     fill="#d6d90e"
     d="m 322.31137,532.57002 -0.11,55.68 a 0.63,0.62 86.3 0 1 -0.54,0.62 l -11.26,1.36 a 0.34,0.35 86.3 0 1 -0.39,-0.34 l 0.1,-57.2 q 6.1,-1.34 12.2,-0.12 z"
     id="path1004" />
  <path
     fill="#2270ba"
     d="m 126.41137,589.07002 q 0.81,0.56 0.29,1.22 -3.79,4.9 -3.86,11.2 a 1.12,1.12 0 0 1 -1.12,1.11 l -16.36,-0.03 q -10.079996,-0.56 -20.159996,-0.7 -13.92,-0.19 -20.14,-0.67 -19.11,-1.5 -25.27,-1.76 c -10.22,-0.44 -19.33,-1.74 -32.5400002,-3.05 a 1.12,1.11 2.1 0 1 -1,-1.07 q -0.33,-8.56 -0.14,-13.82 0.16,-4.74 -0.51,-8.51 c -1.06,-5.91 -1.93,-13.53 -1.48,-19.69 a 0.63,0.63 0 0 1 0.68,-0.58 q 0.28,0.02 9.2100002,2.56 3.09,0.88 9.28,2.24 35.34,7.77 69.53,18.03 8.919996,2.68 26.999996,10.25 2.39,0.99 6.59,3.27 z"
     id="path1006" />
  <path
     fill="#6e9c77"
     d="m 781.58137,564.13002 -0.22,22.62 q -4.81,-2.89 -10.52,-4.44 l 0.01,-13.63 q 5.87,-1.68 10.73,-4.55 z"
     id="path1008" />
  <path
     fill="#d6d90e"
     d="m 770.84137,582.31002 q 5.71,1.55 10.52,4.44 0.68,22.01 0.16,43.98 -0.13,5.27 0.25,33.16 c 0.03,2.1 2.45,3.34 4.68,3.95 q 7.77,2.12 16.39,6.44 0.32,0.16 0.64,0.54 a 0.65,0.64 70.9 0 1 -0.51,1.06 q -5.64,-0.19 -13.05,0.64 -3.07,0.34 -11.36,-0.07 a 3.29,3.15 58.4 0 1 -1.3,-0.34 c -5.49,-2.8 -6.32,-7.36 -6.36,-13.66 q -0.12,-22.16 -0.2,-44.54 l 0.09,-16.59 0.23,-2.68 a 1.95,1.93 83.4 0 1 1.32,-1.68 q 4.3,-1.41 7.32,-5.42 a 0.65,0.65 0 0 0 -0.37,-1.02 q -1.73,-0.39 -2.43,-0.34 c -4.39,0.3 -8.13,-0.72 -12.61,-1.37 q -27.87,-4.05 -51.64,-5.21 -33.54,-1.62 -69.48,0.71 -33.66,2.19 -74.76,8.69 -28.94,4.57 -48.41,8.16 c -20.4,3.77 -43.41,8.92 -63.92,12.75 q -2.28,0.42 -38.11,7.37 -45.03,8.72 -96.43,14.79 -32.6,3.85 -65.32,3.53 c -19.12,-0.19 -37.64,-1.3 -55.42,-5.81 q -4.61,-1.17 -12.17,-3.28 c -3.78,-1.05 -6.39,-2.67 -9.62,-4.12 -3.67,-1.64 -8.15,-4.69 -12.35,-6.87 q -0.44,-0.75 -2.05,-1.53 -0.81,0.03 -0.23,-1.95 1.09,-3.73 2.34,-7.45 a 1.77,1.86 69.6 0 1 0.23,-0.47 q 0.7,-1.02 1.05,-0.3 22.02,7.2 43.04,8.54 25.02,1.6 56.63,-0.23 55.91,-3.23 115.56,-12.05 52.04,-7.69 95.68,-14.8 c 33.85,-5.51 73.25,-11.27 110,-14.5 q 44.16,-3.88 83.52,-2.08 20.81,0.96 35.23,3.04 c 12.72,1.84 21.78,2.88 33.27,5.41 q 13.89,3.06 28.97,7.17 a 0.81,0.81 0 0 0 1.02,-0.79 z"
     id="path1010" />
  <path
     fill="#d6d90e"
     d="m 141.05137,605.52002 q -1.32,7.54 -4.58,14.53 -1.24,2.67 -0.75,5.58 -2.2,-0.2 -3.78,-1.22 -1.31,-0.86 -3.96,-3.16 l -3.47,-3.84 a 0.78,0.77 59.8 0 0 -0.82,-0.22 q -2.42,0.8 -3.28,1.32 -6.08,3.69 -15.42,8.47 -8.199996,4.19 -15.239996,8.71 -16.58,10.67 -16.68,10.73 -17.01,11.94 -31.66,25.69 a 1.04,1.05 55.7 0 1 -1.66,-0.31 l -8.82,-18.75 a 5.8,5.74 29.3 0 1 -0.51,-1.78 l -1.67,-13.81 a 1.97,1.96 69.8 0 1 0.86,-1.88 q 2.15,-1.43 13.87,-8.56 c 18.7,-11.37 39.48,-19.01 60.719996,-23.3 a 1,1.03 12.8 0 0 0.6,-0.39 l 0.56,-0.76 16.36,0.03 a 1.12,1.12 0 0 0 1.12,-1.11 q 0.07,-6.3 3.86,-11.2 0.52,-0.66 -0.29,-1.22 0.38,-0.09 0.58,-0.68 0.27,0.21 0.78,0.19 a 1.11,1.12 23.3 0 0 0.67,-0.27 q 4.6,-3.94 10.33,-5.41 a 0.64,0.64 0 0 1 0.73,0.91 c -2.57,5.05 -1.14,10.48 0.4,15.62 q 0.96,3.23 1.15,6.09 z"
     id="path1012" />
  <path
     fill="#2270ba"
     d="m 770.79137,601.32002 -0.09,16.59 q -31.82,-3.84 -61.83,-3.88 -61.22,-0.07 -122.7,10.69 l -10.02,-25.65 q 22.65,-3.39 48.47,-5.56 42.07,-3.55 82.82,-0.82 c 13.76,0.93 31.09,3.23 44.43,4.75 q 3.97,0.46 18.92,3.88 z"
     id="path1016" />
  <path
     fill="#32578e"
     d="m 576.15137,599.07002 10.02,25.65 -25.7,4.13 q -2.24,-13.71 -7.33,-26.23 z"
     id="path1018" />
  <path
     fill="#833c43"
     d="m 553.14137,602.62002 q 5.09,12.52 7.33,26.23 l -36.73,6.7 q -4.74,-12.94 -7.85,-26.45 z"
     id="path1020" />
  <path
     fill="#2270ba"
     d="m 167.58137,648.86002 q -0.11,12.63 0.23,24.87 0.69,25.08 4.44,48.42 5.79,36.12 21.34,68.73 a 0.57,0.56 86.2 0 1 -0.68,0.78 q -9.31,-2.92 -15.6,-4.82 -12.21,-3.67 -26.92,-1.8 -2.19,0.27 -2.86,-1.87 -4.23,-13.49 -6.67,-27.79 -4.96,-27.63 -4.04,-53.14 1.33,-36.75 8.78,-72.77 a 0.95,0.96 4.5 0 0 -0.98,-1.15 q -3.81,0.2 -7.28,-1.19 -0.1,-0.41 -0.72,-0.36 l -0.43,-0.07 -0.47,-1.07 q -0.49,-2.91 0.75,-5.58 3.26,-6.99 4.58,-14.53 3.29,1.55 4.48,6.36 a 3.92,3.57 28.3 0 0 0.26,0.74 q 5.39,11.5 11.07,22.87 2.74,5.5 10.72,13.37 z"
     id="path1022" />
  <path
     fill="#c32a28"
     d="m 515.89137,609.10002 q 3.11,13.51 7.85,26.45 l -15.07,3.04 -8.59,-26.44 z"
     id="path1024" />
  <path
     fill="#2270ba"
     d="m 164.57137,617.99002 q 1.61,0.78 2.05,1.53 1.16,2.87 1.35,5.75 0.15,0.6 -0.25,0.77 a 0.28,0.26 47.4 0 1 -0.24,-0.02 q -5.52,-3.37 -2.91,-8.03 z"
     id="path1026" />
  <path
     fill="#e8291f"
     d="m 127.98137,621.25002 q 2.65,2.3 3.96,3.16 1.58,1.02 3.78,1.22 l 0.47,1.07 q -5.74,8.18 -11.54,16.34 -4.26,5.99 -7.84,13.64 a 7.93,8.42 73.3 0 1 -0.74,1.28 q -4.44,6.32 -7.83,13.89 -5.55,12.36 -10.349996,24.35 -4.19,10.47 -8.37,28.1 -8.47,35.65 -3.25,73.1 0.15,1.04 0.01,2.2 a 0.44,0.44 0 0 1 -0.69,0.3 q -1.2,-0.87 -9.22,-6.41 c -8.07,-5.58 -17.52,-9.57 -26.78,-10.61 q -2.19,-0.24 -3.59,-0.45 a 0.8,0.79 1.4 0 1 -0.68,-0.71 q -1.34,-13.77 0.68,-29.41 5.29,-40.94 27.25,-74.69 3.74,-5.75 11.13,-15.47 5.37,-7.07 12.56,-14.33 c 10.299996,-10.4 19.549996,-19.18 31.039996,-26.57 z"
     id="path1028" />
  <path
     fill="#6e9c77"
     d="m 137.34137,627.13002 q 0.12,-0.18 -0.53,-0.11 l -0.19,-0.25 q 0.62,-0.05 0.72,0.36 z"
     id="path1030" />
  <path
     fill="#d6d90e"
     d="m 137.34137,627.13002 q 3.47,1.39 7.28,1.19 a 0.95,0.96 4.5 0 1 0.98,1.15 q -7.45,36.02 -8.78,72.77 -0.92,25.51 4.04,53.14 l -1.93,6.06 a 9.08,8.92 54.2 0 0 -0.41,2.69 c 0,6.3 1.99,14.28 3.77,19.94 q 2.41,7.68 8.25,14.21 1.5,1.69 2.96,1.82 a 1.34,1.36 77.8 0 1 1.06,0.67 l 3.84,6.65 a 0.68,0.69 76.5 0 1 -0.63,1.02 c -12.19,-0.57 -19.55,5.5 -26.5,14.54 a 0.81,0.81 0 0 1 -1.4,-0.19 q -18.28,-45.36 -16.09,-94.81 0.99,-22.29 5.9,-46.34 1.08,-5.3 3.07,-14.31 1.14,-5.15 3.27,-11.11 3.71,-10.4 3.86,-10.94 c 1.6,-5.57 4.28,-10.59 6.85,-16.93 q 0.14,-0.35 0.08,-1.33 0.65,-0.07 0.53,0.11 z"
     id="path1032" />
  <path
     fill="#833c43"
     d="m 922.31137,659.64002 q 0.13,6.51 -1.25,11.61 -0.6,2.22 -3.2,2.79 -8.88,-5.53 -18.75,-9.85 a 1.49,1.51 11.6 0 1 -0.9,-1.38 v -15.59 a 0.18,0.18 0 0 1 0.25,-0.16 q 12.57,5.39 23.85,12.58 z"
     id="path1034" />
  <path
     fill="#6e9c77"
     d="m 891.12137,656.71002 -0.14,20.47 q -5,-1.5 -10.07,-6.97 l -0.15,-13.77 q 5.04,-0.72 10.36,0.27 z"
     id="path1036" />
  <path
     fill="#e8291f"
     d="m 996.26137,795.60002 q -0.91,4.79 -1.93,9.35 -0.19,0.81 -1.91,9.36 -2.12,10.5 -6.83,20.43 3.7,-15.46 4.39,-26.19 0.19,-2.95 0.24,-15.01 0.03,-8.69 -0.76,-13.09 -0.91,-5.1 -2.19,-12.98 -0.93,-5.74 -4.22,-15.03 -3.69,-10.38 -5.85,-14.52 -3.2,-6.12 -8.4,-14.9 -2.44,-4.11 -5.72,-8.26 c -5.38,-6.82 -10.76,-13.89 -16.91,-19.57 q -13.08,-12.07 -28.31,-21.15 2.6,-0.57 3.2,-2.79 1.38,-5.1 1.25,-11.61 26.2,16.76 43.88,38.78 17.63,21.97 25.22,49.12 5.38,19.25 4.97,35.44 -0.24,9.62 -0.12,12.62 z"
     id="path1038" />
  <path
     fill="#d6d90e"
     d="m 890.98137,677.18002 q 0.15,1.55 1.15,2.02 11.39,5.38 19.67,10.13 5.76,3.3 19.63,13.57 2.81,2.08 14.52,13.93 5.44,5.51 8.25,10.05 c 2.67,4.34 6.93,9.28 9.56,14.62 q 7.24,14.66 9.16,21.86 1.06,3.96 3.11,16.13 c 1.22,7.21 0.74,13.32 0.81,20.28 a 0.47,0.47 0 0 1 -0.47,0.47 h -0.26 a 0.18,0.18 0 0 1 -0.18,-0.16 q -1.45,-12.73 -4.52,-21.46 -5.64,-16.04 -15.59,-30.72 -9.1,-13.42 -23.2,-25.38 c -11.95,-10.14 -25.01,-17.94 -39.21,-24.38 -6.99,-3.17 -11.52,-7.1 -12.37,-14.63 q -0.53,-4.71 -0.13,-13.3 5.07,5.47 10.07,6.97 z"
     id="path1040" />
  <path
     fill="#0f2548"
     d="m 336.71137,749.09002 q 0,5.99 -0.11,8.53 a 0.43,0.42 1.1 0 1 -0.43,0.41 h -61.91 a 0.54,0.54 0 0 0 -0.54,0.54 v 23.46 a 0.49,0.48 0 0 0 0.49,0.48 h 76.68 a 0.79,0.79 0 0 1 0.79,0.79 v 17.24 a 0.41,0.41 0 0 1 -0.41,0.41 h -95.74 a 0.53,0.54 89.6 0 1 -0.54,-0.53 q -0.02,-1.09 0,-51.37 0.03,-50.28 0.05,-51.37 a 0.54,0.53 0.5 0 1 0.54,-0.53 l 95.74,0.09 a 0.41,0.41 0 0 1 0.41,0.41 l -0.02,17.24 a 0.79,0.79 0 0 1 -0.79,0.79 l -76.68,-0.07 a 0.49,0.48 0.1 0 0 -0.49,0.48 l -0.02,23.46 a 0.54,0.54 0 0 0 0.54,0.54 l 61.91,0.06 a 0.42,0.43 89 0 1 0.42,0.4 q 0.12,2.54 0.11,8.54 z"
     id="path1042" />
  <path
     fill="#0f2548"
     d="m 700.80137,766.73002 a 0.26,0.26 0 0 0 0.23,-0.39 l -22.97,-39.78 a 0.79,0.79 0 0 0 -1.37,0 l -42.24,73.16 a 2.63,2.63 0 0 1 -2.28,1.32 h -19.29 a 0.63,0.63 0 0 1 -0.55,-0.94 l 58.02,-100 a 2.89,2.73 85.1 0 1 0.51,-0.64 q 3.68,-3.43 9.56,-2.22 c 2.33,0.47 3.82,2.04 5.13,4.22 5.8,9.67 12.64,22.43 18.4,31.66 3.9,6.24 6.92,12.28 11.82,20.62 9.08,15.44 17.42,30.52 26.89,46.5 a 0.56,0.57 74.7 0 1 -0.49,0.85 h -20.17 a 1.32,1.33 75.2 0 1 -1.15,-0.66 l -8.98,-15.55 a 1.46,1.46 0 0 0 -1.27,-0.74 h -45.22 a 0.57,0.57 0 0 1 -0.57,-0.57 q -0.01,-2.81 0.15,-8.41 c 0.12,-4.36 0,-8.56 5.13,-8.53 q 22.88,0.15 30.71,0.1 z"
     id="path1044" />
  <path
     fill="#0f2548"
     d="m 484.05137,800.22002 a 0.45,0.45 0 0 1 -0.32,0.76 h -23.56 a 1.45,1.48 68.5 0 1 -1.06,-0.45 l -29.67,-31.1 a 1.31,1.33 68.9 0 0 -0.97,-0.42 h -23.44 a 0.9,0.9 0 0 1 -0.9,-0.9 v -14.71 a 2.06,2.06 0 0 1 1.76,-2.04 q 1.6,-0.24 5.23,-0.23 14.42,0.06 28.66,0.09 5.8,0.01 8.55,-1.17 c 14.79,-6.37 14.23,-26.86 -0.23,-33.3 q -2.88,-1.28 -9.09,-1.07 -1.27,0.05 -49.95,0.02 a 0.79,0.79 0 0 0 -0.79,0.79 v 83.84 a 0.62,0.61 0 0 1 -0.62,0.61 h -18 a 0.54,0.55 0 0 1 -0.54,-0.55 v -102.49 a 0.44,0.42 87.1 0 1 0.38,-0.44 q 1.59,-0.2 3.63,-0.2 57.05,-0.03 63.75,-0.04 c 6.22,-0.02 12.57,0.21 18.09,2.33 q 14.95,5.72 20.74,19.83 c 3.45,8.4 3.88,17.44 0.6,26.31 q -5.86,15.87 -22.46,21.97 a 0.44,0.44 0 0 0 -0.17,0.72 z"
     id="path1046" />
  <path
     fill="#0f2548"
     d="m 513.84137,749.17002 c 0,14.37 9.12,27.27 22.95,31.86 q 4.91,1.63 15.35,1.6 27.46,-0.09 49.9,-0.09 a 0.72,0.72 0 0 1 0.72,0.72 v 16.96 a 0.76,0.76 0 0 1 -0.76,0.76 q -16.25,0.07 -50.81,0.06 -11.55,0 -17.52,-1.55 c -23.45,-6.06 -39.12,-26.02 -39.13,-50.31 -0.01,-24.29 15.65,-44.26 39.09,-50.34 q 5.97,-1.55 17.52,-1.56 34.56,-0.04 50.81,0.02 a 0.76,0.76 0 0 1 0.76,0.76 l 0.01,16.96 a 0.72,0.72 0 0 1 -0.72,0.72 q -22.44,0.01 -49.9,-0.05 -10.44,-0.03 -15.35,1.61 c -13.83,4.59 -22.93,17.51 -22.92,31.87 z"
     id="path1048" />
  <path
     fill="#0f2548"
     d="m 853.57137,697.31002 a 0.55,0.54 0.5 0 1 0.54,0.54 v 17.17 a 0.63,0.63 0 0 1 -0.63,0.63 q -48.61,0.13 -62.68,-0.03 -8.85,-0.09 -11.61,1.22 -5.44,2.6 -6.82,9.06 c -1.26,5.89 3.4,12.64 9.52,13.9 q 1.04,0.22 7.48,0.23 24.42,0.04 30.88,-0.06 11.07,-0.16 15.62,1.41 c 11.18,3.89 20.48,13.23 21.44,25.42 q 1.4,17.68 -11.47,27.63 c -6.83,5.28 -13.72,6.59 -23.42,6.5 q -7.53,-0.07 -67.96,0.05 a 0.69,0.69 0 0 1 -0.69,-0.69 v -17.28 a 0.49,0.49 0 0 1 0.49,-0.49 q 42.04,0.08 71.85,-0.03 6.79,-0.03 10.51,-5.52 c 2.49,-3.67 2.61,-10.22 -0.2,-13.92 q -3.84,-5.06 -9.91,-5.07 -34.07,-0.05 -44.37,-0.13 -3.76,-0.03 -9.6,-2.31 c -13.83,-5.41 -20.74,-18.22 -18.76,-32.68 1.73,-12.73 10.72,-21.39 23.1,-24.61 q 3.82,-0.99 12.01,-1.01 38.91,-0.09 64.68,0.07 z"
     id="path1050" />
  <ellipse
     fill="#d6d90e"
     cx="-808.48108"
     cy="-65.570587"
     transform="rotate(-105.5)"
     rx="2.8399999"
     ry="0.56"
     id="ellipse1052" />
  <path
     fill="#2270ba"
     d="m 996.26137,795.60002 q 0.61,15.3 -0.04,24.89 c -1.63,23.87 -10.06,45.79 -23.52,65.58 q -4.54,6.68 -14.25,17.37 -4.14,4.56 -8.56,8.14 c -3.72,3.02 -8.2,7.29 -12.16,10.02 q -16.27,11.22 -27.52,16.19 -11.32,5 -20.38,8.25 a 0.99,0.98 80.3 0 1 -1.31,-0.93 v -18.04 a 0.91,0.9 78.9 0 1 0.56,-0.84 q 10.5,-4.37 12.69,-5.35 19.12,-8.62 35.9,-21.84 28.18,-22.21 43.66,-53.87 2.65,-5.42 4.26,-10.43 4.71,-9.93 6.83,-20.43 1.72,-8.55 1.91,-9.36 1.02,-4.56 1.93,-9.35 z"
     id="path1054" />
  <path
     fill="#0f2548"
     d="m 323.51137,835.58002 c 0.05,9.65 10.82,13.27 17.31,6.93 a 0.36,0.36 0 0 1 0.53,0.02 l 2.16,2.52 a 0.11,0.1 54.1 0 1 -0.02,0.15 q -11.43,8.21 -20.04,-0.05 -3.87,-3.71 -3.9,-9.55 -0.04,-5.85 3.8,-9.6 8.52,-8.35 20.04,-0.26 a 0.1,0.11 35.3 0 1 0.02,0.15 l -2.13,2.54 a 0.36,0.36 0 0 1 -0.53,0.03 c -6.57,-6.27 -17.29,-2.54 -17.24,7.12 z"
     id="path1056" />
  <path
     fill="#0f2548"
     d="m 286.98137,844.99002 a 0.21,0.21 0 0 1 -0.02,-0.29 l 2.15,-2.48 a 0.22,0.21 40.5 0 1 0.31,-0.02 q 5.64,5.06 11.22,2.65 c 2.88,-1.24 3.48,-4.97 0.38,-6.37 -4.71,-2.12 -12.78,-1.68 -13.04,-8.65 q -0.13,-3.53 2.16,-5.6 c 4.11,-3.74 10.87,-2.46 15.15,0.47 a 0.81,0.81 0 0 1 0.15,1.2 l -1.29,1.49 a 0.92,0.92 0 0 1 -1.26,0.12 c -2.44,-1.93 -9.85,-3.83 -10.95,0.65 -1.82,7.45 16.16,3.23 14.44,14.47 q -0.85,5.57 -6.79,6.36 -6.92,0.9 -12.61,-4 z"
     id="path1058" />
  <path
     fill="#0f2548"
     d="m 382.63137,835.55002 a 13.66,13.66 0 0 1 -13.66,13.66 13.66,13.66 0 0 1 -13.66,-13.66 13.66,13.66 0 0 1 13.66,-13.66 13.66,13.66 0 0 1 13.66,13.66 z m -14.0119,-10.2425 a 10.21,9.82 87.8 0 0 -9.4209,10.5795 10.21,9.82 87.8 0 0 10.2047,9.8255 10.21,9.82 87.8 0 0 9.4209,-10.5795 10.21,9.82 87.8 0 0 -10.2047,-9.8255 z"
     id="path1060" />
  <path
     fill="#0f2548"
     d="m 439.86137,841.93002 q -5.15,-0.01 -5.91,-0.01 a 0.92,0.93 12.5 0 0 -0.83,0.55 l -2.48,5.53 a 1.33,1.35 12.3 0 1 -1.21,0.78 l -2.35,0.01 a 0.54,0.53 11.8 0 1 -0.49,-0.75 l 11.22,-24.96 a 1.11,1.09 83.4 0 1 0.31,-0.41 q 0.72,-0.59 1.76,-0.59 1.04,0 1.76,0.59 a 1.09,1.11 6.7 0 1 0.31,0.41 l 11.18,24.99 a 0.53,0.54 78.2 0 1 -0.5,0.74 l -2.34,-0.01 a 1.35,1.33 77.8 0 1 -1.21,-0.79 l -2.47,-5.53 a 0.93,0.92 77.6 0 0 -0.84,-0.55 q -0.76,0 -5.91,0 z m -4.96,-3.71 a 0.32,0.32 0 0 0 0.29,0.45 l 9.2,0.04 a 0.32,0.32 0 0 0 0.3,-0.44 l -4.55,-10.99 a 0.32,0.32 0 0 0 -0.59,-0.01 z"
     id="path1062" />
  <path
     fill="#0f2548"
     d="m 577.19137,838.15002 a 0.62,0.62 0 0 0 -0.62,-0.62 h -5.83 a 0.8,0.8 0 0 1 -0.8,-0.8 v -1.52 a 0.87,0.87 0 0 1 0.87,-0.87 h 9.27 a 0.71,0.71 0 0 1 0.71,0.71 v 9.37 a 1.65,1.63 71.7 0 1 -0.65,1.31 q -8.24,6.17 -16.57,1.9 c -4.93,-2.52 -8.41,-8.77 -7.25,-14.33 2.35,-11.21 14.18,-14.54 23.26,-8.2 a 0.19,0.19 0 0 1 0.05,0.25 q -0.87,1.42 -2.26,2.5 a 0.16,0.17 43.6 0 1 -0.2,0.01 q -5.85,-3.96 -11.24,-1.51 -4.21,1.92 -5.18,6.43 c -1.97,9.21 4.69,14.68 13.61,12.16 q 1.65,-0.47 2.46,-1.42 a 1.59,1.57 65.3 0 0 0.37,-1.02 z"
     id="path1064" />
  <path
     fill="#0f2548"
     d="m 641.21137,835.50002 a 13.66,13.66 0 0 1 -13.66,13.66 13.66,13.66 0 0 1 -13.66,-13.66 13.66,13.66 0 0 1 13.66,-13.66 13.66,13.66 0 0 1 13.66,13.66 z m -13.6764,-10.2199 a 9.84,10.24 0.3 0 0 -9.8935,10.1884 9.84,10.24 0.3 0 0 9.7863,10.2914 9.84,10.24 0.3 0 0 9.8935,-10.1884 9.84,10.24 0.3 0 0 -9.7863,-10.2914 z"
     id="path1066" />
  <path
     fill="#0f2548"
     d="m 704.75137,822.09002 q 1.05,-0.01 1.77,0.59 a 1.09,1.11 6.4 0 1 0.31,0.4 l 11.3,24.87 a 0.53,0.54 77.9 0 1 -0.49,0.75 h -2.34 a 1.34,1.33 77.5 0 1 -1.21,-0.78 l -2.5,-5.51 a 0.93,0.91 77.3 0 0 -0.84,-0.54 q -0.76,0 -5.89,0.03 -5.14,0.03 -5.9,0.03 a 0.91,0.93 12.1 0 0 -0.83,0.55 l -2.44,5.53 a 1.33,1.34 12 0 1 -1.21,0.79 l -2.34,0.03 a 0.54,0.53 11.5 0 1 -0.49,-0.75 l 11.04,-24.98 a 1.11,1.09 83 0 1 0.32,-0.4 q 0.71,-0.6 1.74,-0.61 z m -4.79,16.08 a 0.32,0.32 0 0 0 0.29,0.45 l 9.21,-0.03 a 0.32,0.32 0 0 0 0.29,-0.45 l -4.64,-10.57 a 0.32,0.32 0 0 0 -0.59,0 z"
     id="path1068" />
  <path
     fill="#0f2548"
     d="m 272.83137,835.47002 q 0,0.67 -0.24,1.18 a 0.91,0.9 12.8 0 1 -0.82,0.51 h -11.7 a 1.08,1.08 0 0 0 -1.08,1.08 v 6.08 a 1.01,1 0 0 0 1.01,1 h 13.47 a 1.12,1.12 0 0 1 1.12,1.12 v 1.2 a 1.07,1.07 0 0 1 -1.07,1.07 l -17.73,-0.02 a 0.59,0.59 0 0 1 -0.59,-0.54 q 0,-0.02 0.03,-12.72 0.02,-12.69 0.02,-12.71 a 0.59,0.59 0 0 1 0.59,-0.54 l 17.73,0.04 a 1.07,1.07 0 0 1 1.06,1.08 v 1.2 a 1.12,1.12 0 0 1 -1.13,1.11 l -13.47,-0.04 a 1.01,1 0.2 0 0 -1.01,0.99 l -0.02,6.08 a 1.08,1.08 0 0 0 1.08,1.09 l 11.7,0.04 a 0.9,0.91 77.4 0 1 0.81,0.51 q 0.24,0.51 0.24,1.19 z"
     id="path1070" />
  <path
     fill="#0f2548"
     d="m 415.09137,846.21002 v 1.75 a 0.76,0.76 0 0 1 -0.76,0.76 h -16.59 a 0.76,0.76 0 0 1 -0.76,-0.76 v -24.95 a 0.76,0.76 0 0 1 0.76,-0.76 h 2.31 a 0.76,0.76 0 0 1 0.76,0.76 v 21.68 a 0.76,0.76 0 0 0 0.76,0.76 h 12.76 a 0.76,0.76 0 0 1 0.76,0.76 z"
     id="path1072" />
  <path
     fill="#0f2548"
     d="m 492.09137,839.25002 v 8.81 a 0.67,0.67 0 0 1 -0.67,0.67 h -2.26 a 0.67,0.67 0 0 1 -0.67,-0.67 v -25.31 a 0.46,0.46 0 0 1 0.46,-0.46 q 6.46,0.02 9.23,-0.02 c 4.88,-0.08 9.89,1 11,6.1 0.98,4.57 -1,8.34 -5.58,9.68 a 0.58,0.57 63.7 0 0 -0.3,0.89 l 6.54,9.15 a 0.46,0.46 0 0 1 -0.4,0.73 l -2.7,-0.17 a 2.02,2.03 74.5 0 1 -1.5,-0.84 l -5.82,-8.13 a 1.63,1.65 74.5 0 0 -1.24,-0.69 l -5.43,-0.36 a 0.62,0.62 0 0 0 -0.66,0.62 z m 0.03,-13.17 -0.06,9 a 0.43,0.43 0 0 0 0.43,0.44 l 7.26,0.05 a 5.91,4.78 0.4 0 0 5.94,-4.74 v -0.3 a 5.91,4.78 0.4 0 0 -5.88,-4.82 l -7.26,-0.05 a 0.43,0.43 0 0 0 -0.43,0.42 z"
     id="path1074" />
  <path
     fill="#0f2548"
     d="m 524.22137,835.47002 q -0.03,-12.67 -0.02,-12.69 a 0.59,0.59 0 0 1 0.58,-0.54 l 17.68,-0.02 a 1.07,1.07 0 0 1 1.07,1.07 v 1.2 a 1.12,1.12 0 0 1 -1.11,1.11 l -13.44,0.01 a 1.01,1 0 0 0 -1.01,0.99 v 6.07 a 1.08,1.08 0 0 0 1.08,1.08 l 11.67,-0.01 a 0.9,0.9 0 0 1 0.82,0.51 q 0.24,0.51 0.24,1.19 0,0.67 -0.24,1.17 a 0.9,0.9 0 0 1 -0.81,0.52 l -11.67,0.04 a 1.08,1.08 0 0 0 -1.08,1.08 l 0.03,6.07 a 1,1.01 89.8 0 0 1.01,0.99 l 13.43,-0.05 a 1.12,1.12 0 0 1 1.12,1.11 l 0.01,1.2 a 1.07,1.07 0 0 1 -1.06,1.07 l -17.69,0.05 a 0.59,0.59 0 0 1 -0.59,-0.54 q 0,-0.02 -0.02,-12.68 z"
     id="path1076" />
  <rect
     fill="#0f2548"
     x="595.76141"
     y="822.15002"
     width="3.72"
     height="26.620001"
     rx="0.93000001"
     id="rect1078" />
  <path
     fill="#0f2548"
     d="m 668.29137,834.29002 q 2.72,3.35 5.94,7.55 a 0.24,0.24 0 0 0 0.43,-0.14 v -18.78 a 0.78,0.78 0 0 1 0.78,-0.78 h 2.16 a 0.76,0.76 0 0 1 0.76,0.76 v 25.03 a 0.7,0.7 0 0 1 -0.5,0.67 q -2.59,0.74 -4.06,-1.31 -3.93,-5.49 -8.16,-10.69 -2.72,-3.35 -5.94,-7.55 a 0.24,0.24 0 0 0 -0.43,0.14 v 18.78 a 0.78,0.78 0 0 1 -0.78,0.78 h -2.16 a 0.76,0.76 0 0 1 -0.76,-0.76 v -25.03 a 0.7,0.7 0 0 1 0.5,-0.67 q 2.59,-0.74 4.07,1.32 3.93,5.48 8.15,10.68 z"
     id="path1080" />
  <path
     fill="#0f2548"
     d="m 735.51137,844.71002 a 0.71,0.71 0 0 0 0.72,0.71 l 12.74,0.01 a 0.86,0.86 0 0 1 0.87,0.85 l 0.03,1.48 a 0.91,0.91 0 0 1 -0.91,0.94 l -16.77,0.02 a 0.54,0.54 0 0 1 -0.54,-0.54 l -0.03,-25.1 a 0.97,0.97 0 0 1 1,-0.98 l 1.82,0.05 a 1.04,1.05 0.4 0 1 1.01,1.04 z"
     id="path1082" />
  <path
     fill="#0f2548"
     d="m 785.03137,822.63002 a 0.33,0.33 0 0 1 0.33,-0.33 l 9.85,0.02 a 13.38,13.03 0.1 0 1 13.36,13.05 v 0.4 a 13.38,13.03 0.1 0 1 -13.4,13.01 l -9.85,-0.02 a 0.33,0.33 0 0 1 -0.33,-0.33 z m 3.75,3.68 -0.16,18.28 a 0.79,0.79 0 0 0 0.78,0.8 l 5.39,0.04 a 9.72,9.67 0.5 0 0 9.81,-9.58 v -0.52 a 9.72,9.67 0.5 0 0 -9.63,-9.76 l -5.39,-0.04 a 0.79,0.79 0 0 0 -0.8,0.78 z"
     id="path1084" />
  <path
     fill="#0f2548"
     d="m 822.62137,835.50002 q -0.02,-12.69 -0.02,-12.7 a 0.59,0.59 0 0 1 0.59,-0.54 l 17.71,-0.01 a 1.07,1.07 0 0 1 1.07,1.07 v 1.19 a 1.12,1.12 0 0 1 -1.12,1.12 h -13.46 a 1.01,1 0 0 0 -1.01,1 v 6.07 a 1.08,1.08 0 0 0 1.08,1.08 l 11.69,0.01 a 0.9,0.9 0 0 1 0.81,0.51 q 0.24,0.5 0.25,1.17 0,0.68 -0.24,1.19 a 0.9,0.9 0 0 1 -0.82,0.52 l -11.69,0.03 a 1.08,1.08 0 0 0 -1.07,1.08 l 0.01,6.08 a 1,1.01 89.8 0 0 1.02,1 l 13.46,-0.05 a 1.12,1.12 0 0 1 1.12,1.12 v 1.2 a 1.07,1.07 0 0 1 -1.06,1.07 l -17.72,0.04 a 0.59,0.59 0 0 1 -0.59,-0.54 q 0,-0.02 -0.01,-12.71 z"
     id="path1086" />
  <path
     fill="#0f2548"
     d="m 764.87137,856.29002 c -0.69,5.03 -3.32,9.77 -9.44,7.84 q -0.09,-0.02 -7.48,-2.49 a 0.96,0.97 23.9 0 0 -1.13,0.44 l -0.84,1.44 a 1.21,1.2 19.8 0 1 -1.26,0.59 l -3.85,-0.69 a 0.68,0.69 9.2 0 1 -0.55,-0.77 c 0.7,-5.01 3.81,-9.38 9.42,-7.25 q 3.03,1.15 6.36,2.41 a 2.19,2.21 25.5 0 0 2.68,-0.96 l 0.82,-1.43 a 0.83,0.83 0 0 1 0.86,-0.4 l 4.02,0.72 a 0.49,0.49 0 0 1 0.39,0.55 z"
     id="path1100" />
  <path
     fill="#0f2548"
     d="m 362.36757,891.37712 a 24.3,25.12 88.1 0 1 -24.3005,25.1195 24.3,25.12 88.1 0 1 -25.9119,-23.4537 24.3,25.12 88.1 0 1 24.3005,-25.1195 24.3,25.12 88.1 0 1 25.9119,23.4537 z m -25.3322,-14.0263 a 14.9,14.35 89.4 0 0 -14.1932,15.0495 14.9,14.35 89.4 0 0 14.5052,14.7489 14.9,14.35 89.4 0 0 14.1932,-15.0495 14.9,14.35 89.4 0 0 -14.5052,-14.7489 z"
     id="path1102" />
  <path
     fill="#0f2548"
     d="m 681.95137,923.25002 4.13,-7.15 a 0.37,0.37 0 0 0 -0.21,-0.54 q -13.16,-4.19 -16.45,-17.37 c -3.29,-13.21 4.33,-26.63 18.04,-29.5 q 13.41,-2.81 23.86,5.95 a 0.92,0.92 0 0 1 0.1,1.31 l -5.66,6.55 a 0.63,0.63 0 0 1 -0.92,0.04 q -5.15,-5.02 -11.47,-5.09 c -11.21,-0.12 -16.83,11.72 -12.6,21.17 4.79,10.73 16.21,10.96 24.21,3.25 a 0.86,0.87 46.2 0 1 1.23,0.02 l 5.3,5.56 a 0.87,0.88 44.3 0 1 0.01,1.2 q -6.95,7.5 -17.04,7.8 a 0.84,0.82 10.9 0 0 -0.75,0.5 l -4.27,9.74 a 0.56,0.56 0 0 1 -0.74,0.29 l -6.48,-2.84 a 0.63,0.63 0 0 1 -0.29,-0.89 z"
     id="path1104" />
  <path
     fill="#0f2548"
     d="m 292.10137,882.27002 a 1.06,1.06 0 0 1 -1.58,0.02 c -6.21,-6.84 -16.64,-6.65 -22.15,0.84 q -5.04,6.85 -1.76,15.06 c 4.15,10.37 16.87,11.82 24.04,3.79 a 1.19,1.19 0 0 1 1.75,-0.03 l 4.85,5.09 a 1.31,1.3 45.5 0 1 -0.01,1.82 q -7.73,7.84 -18.04,7.58 -10.88,-0.27 -17.54,-6.96 c -9.78,-9.83 -8.9,-27.02 1.93,-36.07 9.41,-7.86 24.34,-6.67 33.4,1.07 a 1.39,1.38 40.8 0 1 0.15,1.96 z"
     id="path1106" />
  <path
     fill="#0f2548"
     d="m 842.88477,889.51352 a 24.25,25.06 83.8 0 1 -22.2944,26.8147 24.25,25.06 83.8 0 1 -27.5324,-21.4017 24.25,25.06 83.8 0 1 22.2944,-26.8147 24.25,25.06 83.8 0 1 27.5324,21.4017 z m -25.4211,-12.2677 a 14.96,14.2 88.4 0 0 -13.7768,15.3507 14.96,14.2 88.4 0 0 14.6122,14.5577 14.96,14.2 88.4 0 0 13.7768,-15.3507 14.96,14.2 88.4 0 0 -14.6122,-14.5577 z"
     id="path1108" />
  <path
     fill="#0f2548"
     d="m 752.62137,904.84002 q -7.86,-0.03 -9.09,-0.03 a 1.2,1.21 11.8 0 0 -1.1,0.72 l -3.96,9.23 a 1.44,1.43 11.8 0 1 -1.33,0.86 l -8.4,-0.05 a 0.66,0.66 0 0 1 -0.6,-0.92 l 19.55,-45.49 a 0.86,0.87 10.3 0 1 0.76,-0.52 q 2.01,-0.09 4.27,-0.09 2.27,0.01 4.28,0.11 a 0.87,0.86 80 0 1 0.75,0.53 l 19.29,45.6 a 0.66,0.66 0 0 1 -0.6,0.92 h -8.4 a 1.43,1.44 78.5 0 1 -1.33,-0.87 l -3.9,-9.25 a 1.21,1.2 78.5 0 0 -1.1,-0.73 q -1.23,0 -9.09,-0.02 z m -6.15,-9.52 a 0.52,0.52 0 0 0 0.48,0.71 l 11.3,0.04 a 0.52,0.52 0 0 0 0.48,-0.71 l -5.6,-13.99 a 0.52,0.52 0 0 0 -0.96,-0.01 z"
     id="path1110" />
  <path
     fill="#0f2548"
     d="m 404.63137,887.94002 q 0.32,0 0.55,-0.36 7.38,-11.52 11.44,-18.04 a 1.58,1.57 15.8 0 1 1.34,-0.74 h 9.81 a 0.51,0.51 0 0 1 0.51,0.51 v 45.76 a 0.59,0.59 0 0 1 -0.59,0.59 h -9.03 a 0.51,0.52 0 0 1 -0.51,-0.52 v -29.28 a 0.36,0.37 61.6 0 0 -0.67,-0.2 q -2.32,3.54 -12.47,18.57 -0.06,0.09 -0.16,0.14 -0.07,0.02 -0.24,0.02 -0.17,0 -0.23,-0.03 -0.11,-0.04 -0.17,-0.13 -10.11,-15.06 -12.42,-18.6 a 0.37,0.36 28.5 0 0 -0.67,0.19 l -0.08,29.28 a 0.51,0.52 0.2 0 1 -0.51,0.52 l -9.03,-0.02 a 0.59,0.59 0 0 1 -0.59,-0.59 l 0.13,-45.76 a 0.51,0.51 0 0 1 0.51,-0.51 l 9.81,0.02 a 1.57,1.58 74.4 0 1 1.33,0.75 q 4.05,6.53 11.4,18.07 0.22,0.36 0.54,0.36 z"
     id="path1112" />
  <path
     fill="#0f2548"
     d="m 458.75137,915.13002 a 0.5,0.5 0 0 1 -0.5,0.5 h -9.17 a 0.25,0.25 0 0 1 -0.25,-0.25 v -45.85 a 0.72,0.73 0 0 1 0.72,-0.73 q 10.81,0.01 15.12,-0.14 c 6.93,-0.24 13.01,0.81 17.29,5.47 4.58,5.01 5.28,13.33 1.57,19.28 -5.58,8.92 -15.14,8.08 -24.18,8.19 a 0.61,0.61 0 0 0 -0.6,0.61 z m 0.1,-36.99 -0.04,13.96 a 0.39,0.39 0 0 0 0.38,0.39 l 8.61,0.03 a 7.44,7.17 0.2 0 0 7.47,-7.14 v -0.4 a 7.44,7.17 0.2 0 0 -7.41,-7.2 l -8.61,-0.03 a 0.39,0.39 0 0 0 -0.4,0.39 z"
     id="path1114" />
  <path
     fill="#0f2548"
     d="m 522.43137,907.16002 c 6.51,-0.01 10.06,-4.48 10.1,-10.73 q 0.12,-18.44 0.03,-27.1 a 0.56,0.56 0 0 1 0.56,-0.57 h 9.1 a 0.39,0.39 0 0 1 0.39,0.38 q 0.24,18.15 0.02,27.95 c -0.27,12.24 -8.22,19.3 -20.19,19.32 -11.96,0.02 -19.94,-7.01 -20.25,-19.24 q -0.26,-9.81 -0.09,-27.96 a 0.39,0.39 0 0 1 0.39,-0.38 l 9.1,-0.03 a 0.56,0.56 0 0 1 0.56,0.57 q -0.05,8.66 0.13,27.09 c 0.06,6.25 3.63,10.71 10.15,10.7 z"
     id="path1116" />
  <path
     fill="#0f2548"
     d="m 578.60137,868.82002 q 9.44,-0.09 18.59,-0.04 a 0.61,0.61 0 0 1 0.61,0.61 v 8.02 a 0.63,0.63 0 0 1 -0.63,0.63 h -12.91 a 0.54,0.54 0 0 0 -0.54,0.54 l -0.08,36.44 a 0.61,0.6 85.5 0 1 -0.51,0.6 q -0.27,0.05 -4.63,0.04 -4.35,-0.01 -4.63,-0.06 a 0.6,0.61 4.8 0 1 -0.51,-0.6 l 0.07,-36.44 a 0.54,0.54 0 0 0 -0.53,-0.54 l -12.91,-0.06 a 0.63,0.63 0 0 1 -0.63,-0.63 l 0.03,-8.02 a 0.61,0.61 0 0 1 0.61,-0.6 q 9.15,-0.02 18.6,0.11 z"
     id="path1118" />
  <path
     fill="#0f2548"
     d="m 630.73137,868.68002 q 2.26,0.01 4.26,0.11 a 0.86,0.86 0 0 1 0.75,0.53 l 19.21,45.43 a 0.66,0.65 78.6 0 1 -0.6,0.91 h -8.37 a 1.43,1.44 78.5 0 1 -1.32,-0.87 l -3.89,-9.21 a 1.2,1.2 0 0 0 -1.09,-0.73 q -1.23,0 -9.06,-0.02 -7.83,-0.03 -9.05,-0.03 a 1.2,1.2 0 0 0 -1.1,0.72 l -3.95,9.18 a 1.44,1.43 11.8 0 1 -1.32,0.87 l -8.37,-0.05 a 0.65,0.66 11.8 0 1 -0.59,-0.92 l 19.48,-45.31 a 0.86,0.86 0 0 1 0.76,-0.52 q 1.99,-0.09 4.25,-0.09 z m -6.33,26.59 a 0.51,0.51 0 0 0 0.47,0.7 l 11.28,0.04 a 0.51,0.51 0 0 0 0.48,-0.7 l -5.6,-13.75 a 0.51,0.51 0 0 0 -0.94,0 z"
     id="path1120" />
  <path
     fill="#d6d90e"
     d="m 981.97137,880.19002 q -0.2,0.75 -2.58,6.49 c -1.96,4.72 -5.15,9.68 -7.18,13.66 q -2.26,4.42 -4.25,7.33 -10.83,15.75 -22.22,26.21 -24.43,22.43 -56.01,33.99 a 0.7,0.7 0 0 1 -0.94,-0.66 v -14.97 a 0.89,0.89 0 0 1 0.57,-0.83 c 5.03,-1.94 14.64,-5.33 21.72,-8.73 q 13.3,-6.39 22.1,-12.18 13.31,-8.78 21.5,-16.7 c 7.71,-7.47 15.05,-15.31 20.71,-24.36 q 5.75,-9.19 5.92,-9.51 a 0.36,0.36 0 0 1 0.66,0.26 z"
     id="path1128" />
  <path
     fill="#0f2548"
     d="m 594.69137,928.67002 a 0.55,0.55 0 0 1 0.16,-0.92 l 4.47,-1.74 a 1.42,1.42 0 0 1 1.75,0.61 l 3.69,6.4 a 0.5,0.5 0 0 1 -0.46,0.75 l -3.43,-0.22 a 1.74,1.74 0 0 1 -1.02,-0.42 z"
     id="path1134" />
  <path
     fill="#0f2548"
     d="m 743.25137,933.51002 a 0.3,0.3 0 0 1 -0.26,-0.45 l 3.82,-6.61 a 1,1.01 24.7 0 1 1.2,-0.45 l 5,1.69 a 0.69,0.69 0 0 1 0.18,1.21 l -6,4.3 a 1.66,1.71 28 0 1 -0.97,0.31 z"
     id="path1136" />
  <path
     fill="#0f2548"
     d="m 402.19137,953.92002 c 0.07,4.85 3.3,9.75 8.14,11.29 q 6.51,2.07 12.13,-3.2 a 0.84,0.83 46.7 0 1 1.19,0.04 l 2.95,3.08 a 0.83,0.83 0 0 1 -0.05,1.19 c -11.39,10.24 -30.56,4.5 -30.81,-12.3 -0.25,-16.8 18.74,-23.11 30.43,-13.22 a 0.83,0.83 0 0 1 0.09,1.19 l -2.86,3.17 a 0.83,0.84 41.6 0 1 -1.19,0.08 q -5.77,-5.1 -12.22,-2.84 c -4.79,1.68 -7.87,6.68 -7.8,11.52 z"
     id="path1138" />
  <path
     fill="#0f2548"
     d="m 674.42137,939.87002 a 0.55,0.56 32.3 0 1 0.16,0.74 l -2.51,4.35 a 0.79,0.8 31.3 0 1 -1.12,0.28 q -7.12,-4.49 -11.03,-2.75 c -4.17,1.86 -2.64,5.97 1.22,6.97 4.98,1.29 10.33,2.05 13.26,5.73 2.94,3.69 1.99,9.67 -1.31,12.8 -6.39,6.06 -17.75,3.57 -23.84,-1.84 a 0.32,0.31 41.7 0 1 -0.03,-0.44 l 3.89,-4.5 a 0.25,0.25 0 0 1 0.35,-0.03 q 7.35,5.95 13.13,3.53 2.17,-0.91 2.47,-2.76 c 1.24,-7.76 -20.33,-2.16 -18.6,-16.68 0.67,-5.58 5.28,-8.93 10.65,-9.15 q 7.39,-0.29 13.31,3.75 z"
     id="path1140" />
  <path
     fill="#0f2548"
     d="m 272.64137,962.75002 q -6.73,0.01 -7.45,0.01 a 0.89,0.9 12.3 0 0 -0.82,0.53 l -3,6.86 a 1.27,1.26 11.7 0 1 -1.16,0.76 h -4.61 a 0.55,0.55 0 0 1 -0.5,-0.77 l 14.5,-33.1 a 0.9,0.92 7.4 0 1 0.69,-0.54 q 0.11,-0.02 2.33,-0.02 2.21,0 2.33,0.02 a 0.92,0.9 82.5 0 1 0.69,0.53 l 14.56,33.08 a 0.55,0.55 0 0 1 -0.5,0.77 l -4.61,0.01 a 1.26,1.27 78.2 0 1 -1.16,-0.76 l -3.01,-6.86 a 0.9,0.89 77.6 0 0 -0.82,-0.52 q -0.72,-0.01 -7.46,0 z m -5.59,-6.05 a 0.37,0.37 0 0 0 0.34,0.52 l 10.62,-0.06 a 0.37,0.37 0 0 0 0.34,-0.52 l -5.37,-12.17 a 0.37,0.37 0 0 0 -0.68,0 z"
     id="path1142" />
  <path
     fill="#0f2548"
     d="m 602.56137,962.87002 q -6.16,-0.01 -6.98,0.01 a 0.89,0.9 11.4 0 0 -0.8,0.53 l -2.83,6.67 a 1.27,1.28 11.5 0 1 -1.18,0.79 l -5.4,-0.01 a 0.51,0.51 0 0 1 -0.47,-0.72 l 14.06,-33.14 a 0.87,0.87 0 0 1 0.81,-0.54 q 1.21,-0.01 2.8,-0.01 1.59,0 2.81,0.01 a 0.87,0.87 0 0 1 0.8,0.55 l 14.04,33.15 a 0.51,0.51 0 0 1 -0.47,0.71 l -5.4,0.01 a 1.28,1.27 78.5 0 1 -1.18,-0.79 l -2.83,-6.67 a 0.9,0.89 78.6 0 0 -0.8,-0.54 q -0.81,-0.01 -6.98,-0.01 z m -4.83,-6.49 a 0.35,0.35 0 0 0 0.33,0.48 l 9.06,-0.01 a 0.35,0.35 0 0 0 0.32,-0.49 l -4.55,-10.89 a 0.35,0.35 0 0 0 -0.65,0 z"
     id="path1144" />
  <path
     fill="#0f2548"
     d="m 308.50137,960.49002 v 10.11 a 0.25,0.25 0 0 1 -0.25,0.25 h -5.62 a 0.25,0.25 0 0 1 -0.25,-0.25 v -33.29 a 0.6,0.61 89.5 0 1 0.6,-0.6 q 13.12,-0.24 15.58,0.03 c 6.17,0.68 10.11,4.93 10.07,11.51 -0.05,7.85 -6.47,11.93 -13.83,11.65 q -2.02,-0.08 -5.56,-0.14 a 0.73,0.73 0 0 0 -0.74,0.73 z m -0.05,-18.25 0.08,11.92 a 0.24,0.24 0 0 0 0.24,0.24 l 6.85,-0.05 a 5.93,7.05 89.6 0 0 7.01,-5.98 v -0.54 a 5.93,7.05 89.6 0 0 -7.09,-5.88 l -6.85,0.05 a 0.24,0.24 0 0 0 -0.24,0.24 z"
     id="path1146" />
  <path
     fill="#0f2548"
     d="m 364.09137,970.90002 h -22.55 a 0.6,0.6 0 0 1 -0.6,-0.6 v -33.24 a 0.6,0.6 0 0 1 0.6,-0.6 h 4.89 a 0.6,0.6 0 0 1 0.6,0.6 v 27.62 a 0.6,0.6 0 0 0 0.6,0.6 h 16.46 a 0.6,0.6 0 0 1 0.6,0.6 v 4.42 a 0.6,0.6 0 0 1 -0.6,0.6 z"
     id="path1148" />
  <rect
     fill="#0f2548"
     x="376.75137"
     y="936.61005"
     width="6.0599999"
     height="34.34"
     rx="0.55000001"
     id="rect1150" />
  <path
     fill="#0f2548"
     d="m 453.64137,936.41002 q 2.22,0 2.34,0.02 a 0.92,0.91 82.6 0 1 0.69,0.54 l 14.53,33.18 a 0.55,0.55 0 0 1 -0.5,0.77 h -4.62 a 1.27,1.27 0 0 1 -1.16,-0.76 l -3.01,-6.88 a 0.9,0.89 77.7 0 0 -0.82,-0.53 q -0.72,0 -7.47,-0.01 -6.75,-0.01 -7.48,0 a 0.89,0.9 12.4 0 0 -0.82,0.52 l -3.02,6.87 a 1.27,1.27 0 0 1 -1.16,0.76 h -4.62 a 0.55,0.55 0 0 1 -0.5,-0.78 l 14.6,-33.14 a 0.91,0.92 7.5 0 1 0.68,-0.54 q 0.12,-0.02 2.34,-0.02 z m -5.57,20.29 a 0.35,0.35 0 0 0 0.32,0.48 h 10.38 a 0.35,0.35 0 0 0 0.32,-0.48 l -5.19,-12.1 a 0.35,0.35 0 0 0 -0.64,0 z"
     id="path1152" />
  <path
     fill="#0f2548"
     d="m 482.83137,937.06002 a 0.56,0.56 0 0 1 0.56,-0.56 l 12.53,0.03 a 17.55,16.7 0.1 0 1 17.52,16.73 v 0.92 a 17.55,16.7 0.1 0 1 -17.58,16.67 l -12.53,-0.03 a 0.56,0.56 0 0 1 -0.56,-0.56 z m 6.02,5.34 -0.08,22.56 a 0.33,0.33 0 0 0 0.33,0.33 l 6.59,0.02 a 11.28,11.13 0.2 0 0 11.32,-11.09 v -0.96 a 11.28,11.13 0.2 0 0 -11.24,-11.17 l -6.59,-0.02 a 0.33,0.33 0 0 0 -0.33,0.33 z"
     id="path1154" />
  <path
     fill="#0f2548"
     d="m 539.12137,936.52002 q 2.21,0.01 2.33,0.03 a 0.92,0.9 82.7 0 1 0.69,0.54 l 14.44,33.1 a 0.55,0.55 0 0 1 -0.5,0.77 l -4.61,-0.01 a 1.26,1.26 0 0 1 -1.16,-0.76 l -2.98,-6.86 a 0.9,0.89 77.8 0 0 -0.82,-0.53 q -0.72,-0.01 -7.45,-0.02 -6.73,-0.02 -7.46,-0.02 a 0.89,0.9 12.5 0 0 -0.81,0.53 l -3.03,6.84 a 1.26,1.26 0 0 1 -1.16,0.76 l -4.6,-0.02 a 0.55,0.55 0 0 1 -0.5,-0.77 l 14.6,-33.03 a 0.9,0.92 7.6 0 1 0.69,-0.53 q 0.12,-0.02 2.33,-0.02 z m -5.34,20.15 a 0.35,0.35 0 0 0 0.33,0.48 l 10.2,-0.02 a 0.35,0.35 0 0 0 0.32,-0.48 l -5.12,-12.21 a 0.35,0.35 0 0 0 -0.65,0 z"
     id="path1156" />
  <path
     fill="#0f2548"
     d="m 702.70137,936.46002 q 1.6,0 2.82,0.02 a 0.87,0.87 0 0 1 0.8,0.54 l 14.06,33.25 a 0.52,0.51 78.3 0 1 -0.47,0.72 h -5.42 a 1.29,1.28 78.6 0 1 -1.18,-0.79 l -2.83,-6.69 a 0.9,0.89 78.7 0 0 -0.8,-0.54 q -0.82,-0.01 -7,-0.02 -6.18,-0.01 -7,0.01 a 0.89,0.9 11.4 0 0 -0.81,0.53 l -2.84,6.69 a 1.28,1.29 11.5 0 1 -1.18,0.79 l -5.42,-0.01 a 0.51,0.52 11.8 0 1 -0.47,-0.72 l 14.13,-33.23 a 0.87,0.87 0 0 1 0.8,-0.54 q 1.22,-0.01 2.81,-0.01 z m -4.92,19.8 a 0.31,0.31 0 0 0 0.28,0.43 l 9.13,0.04 a 0.31,0.31 0 0 0 0.28,-0.44 l -4.52,-10.25 a 0.31,0.31 0 0 0 -0.57,-0.01 z"
     id="path1158" />
  <path
     fill="#0f2548"
     d="m 745.24137,965.15002 c 4.8,0.01 7.74,-3.05 7.91,-7.93 q 0.21,-5.71 0.2,-20.13 a 0.51,0.51 0 0 1 0.51,-0.51 h 5.76 a 0.52,0.52 0 0 1 0.52,0.52 q 0,12.73 0.03,16.88 0.03,6.28 -0.97,8.75 c -2.5,6.18 -7.57,8.68 -13.98,8.66 -6.4,-0.01 -11.47,-2.55 -13.93,-8.73 q -0.99,-2.48 -0.92,-8.76 0.05,-4.15 0.12,-16.88 a 0.52,0.52 0 0 1 0.52,-0.52 l 5.76,0.03 a 0.51,0.51 0 0 1 0.51,0.52 q -0.09,14.42 0.08,20.13 c 0.15,4.88 3.08,7.95 7.88,7.97 z"
     id="path1160" />
  <path
     fill="#0f2548"
     d="m 773.31137,936.94002 a 0.39,0.39 0 0 1 0.39,-0.39 l 13.78,-0.03 a 16.86,17.27 89.9 0 1 17.3,16.83 v 0.62 a 16.86,17.27 89.9 0 1 -17.24,16.89 l -13.78,0.03 a 0.39,0.39 0 0 1 -0.39,-0.39 z m 6.88,6.27 0.08,21.06 a 0.57,0.57 0 0 0 0.57,0.57 l 5.6,-0.02 a 11,11.17 89.8 0 0 11.13,-11.04 v -0.2 a 11,11.17 89.8 0 0 -11.21,-10.96 l -5.6,0.02 a 0.57,0.57 0 0 0 -0.57,0.57 z"
     id="path1162" />
  <path
     fill="#0f2548"
     d="m 840.42137,953.64002 q 0.01,1.38 -0.06,2.56 a 0.57,0.57 0 0 1 -0.57,0.54 h -15.17 a 0.49,0.49 0 0 0 -0.49,0.49 v 7.08 a 0.58,0.57 0 0 0 0.58,0.57 h 17.5 a 0.71,0.71 0 0 1 0.71,0.71 v 4.61 a 0.64,0.64 0 0 1 -0.64,0.64 h -24.56 a 0.47,0.47 0 0 1 -0.47,-0.47 q 0.04,-12.81 0.03,-16.68 -0.01,-3.87 -0.1,-16.68 a 0.47,0.47 0 0 1 0.46,-0.47 l 24.56,-0.11 a 0.64,0.64 0 0 1 0.65,0.64 l 0.02,4.61 a 0.71,0.71 0 0 1 -0.71,0.71 l -17.5,0.08 a 0.57,0.58 89.7 0 0 -0.58,0.58 l 0.03,7.08 a 0.49,0.49 0 0 0 0.5,0.48 l 15.17,-0.07 a 0.57,0.57 0 0 1 0.57,0.54 q 0.07,1.18 0.07,2.56 z"
     id="path1164" />
  <path
     fill="#e8291f"
     d="m 481.84137,1039.76 a 0.34,0.34 0 0 0 0.21,0.6 h 16.82 a 0.55,0.55 0 0 1 0.55,0.55 v 5.2 a 0.49,0.49 0 0 1 -0.49,0.49 h -27.36 a 0.83,0.83 0 0 1 -0.83,-0.83 v -3.76 a 2.79,2.79 0 0 1 0.92,-2.07 q 2.93,-2.66 14.49,-12.17 c 3.38,-2.78 6.08,-6.36 4.84,-10.85 -1.06,-3.84 -6.12,-4.61 -9.17,-3.19 q -2.72,1.26 -4.97,4.71 a 0.24,0.23 34 0 1 -0.33,0.06 l -5.05,-3.69 a 0.26,0.25 36 0 1 -0.06,-0.35 q 5.96,-9.03 16.15,-7.98 c 5.38,0.55 10.51,4.32 11.44,9.96 1.03,6.27 -2.5,10.75 -7.01,14.67 q -7.55,6.57 -10.15,8.65 z"
     id="path1182" />
  <path
     fill="#e8291f"
     d="m 528.87707,1006.29 a 17.21,20.43 0.1 0 1 17.1743,20.46 17.21,20.43 0.1 0 1 -17.2457,20.4 17.21,20.43 0.1 0 1 -17.1743,-20.46 17.21,20.43 0.1 0 1 17.2457,-20.4 z m -0.0841,6.4603 a 14.09,9.54 89.6 0 0 -9.4414,14.1563 14.09,9.54 89.6 0 0 9.6382,14.0231 14.09,9.54 89.6 0 0 9.4414,-14.1563 14.09,9.54 89.6 0 0 -9.6382,-14.0231 z"
     id="path1184" />
  <path
     fill="#e8291f"
     d="m 568.50137,1039.72 a 0.34,0.34 0 0 0 0.21,0.6 l 16.77,0.03 a 0.55,0.55 0 0 1 0.55,0.55 l -0.01,5.19 a 0.49,0.49 0 0 1 -0.49,0.49 l -27.29,-0.05 a 0.83,0.83 0 0 1 -0.82,-0.83 v -3.75 a 2.78,2.78 0 0 1 0.92,-2.07 q 2.93,-2.64 14.48,-12.11 c 3.38,-2.77 6.08,-6.33 4.85,-10.81 -1.05,-3.84 -6.1,-4.61 -9.14,-3.2 q -2.72,1.25 -4.97,4.69 a 0.24,0.23 34.1 0 1 -0.33,0.06 l -5.03,-3.69 a 0.26,0.25 36.1 0 1 -0.06,-0.35 q 5.96,-9 16.12,-7.93 c 5.37,0.56 10.48,4.32 11.4,9.95 1.01,6.26 -2.52,10.72 -7.02,14.62 q -7.54,6.54 -10.14,8.61 z"
     id="path1186" />
  <path
     fill="#e8291f"
     d="m 606.65137,1023.22 a 0.31,0.31 0 0 0 0.48,0.26 q 3.15,-2.02 7.66,-2.16 c 8.74,-0.28 15.26,4.66 14.31,14.2 -0.4,4.1 -3.78,9 -7.37,10.14 -9.11,2.9 -18.5,0.79 -21.79,-8.97 q -3.32,-9.88 1.25,-20.4 c 4.52,-10.43 16.92,-12.94 25.67,-6.16 a 1.14,1.13 33.9 0 1 0.29,1.47 l -2.43,4.21 a 0.97,0.97 0 0 1 -1.44,0.27 c -7.14,-5.72 -16.6,-2.97 -16.63,7.14 z m 15.6006,9.5075 a 6.96,7.81 80.4 0 0 -8.8613,-5.56 6.96,7.81 80.4 0 0 -6.5399,8.165 6.96,7.81 80.4 0 0 8.8613,5.56 6.96,7.81 80.4 0 0 6.5399,-8.165 z"
     id="path1188" />
  <rect
     fill="#d6d90e"
     x="661.97137"
     y="1021.36"
     width="182.3"
     height="5.1199999"
     rx="1.97"
     id="rect1192" />
  <rect
     fill="#2270ba"
     x="254.97137"
     y="1021.4001"
     width="182.36"
     height="5.1199999"
     rx="1.85"
     id="rect1194" />
</svg>
